<svg xmlns="http://www.w3.org/2000/svg" xmlns:xlink="http://www.w3.org/1999/xlink" width="100" zoomAndPan="magnify" viewBox="0 0 75 74.999997" height="100" preserveAspectRatio="xMidYMid meet" version="1.0"><defs><clipPath id="1efe8d3f17"><path d="M 8.757812 16 L 66.507812 16 L 66.507812 58.71875 L 8.757812 58.71875 Z M 8.757812 16 " clip-rule="nonzero"/></clipPath></defs><g clip-path="url(#1efe8d3f17)"><path fill="#000000" d="M 66.121094 33.796875 C 65.9375 33.03125 65.609375 32.335938 65.132812 31.707031 C 64.878906 31.363281 64.597656 31.039062 64.289062 30.742188 C 64.152344 30.566406 63.980469 30.445312 63.773438 30.375 C 63.535156 30.320312 63.292969 30.28125 63.050781 30.246094 C 61.417969 29.984375 59.78125 29.964844 58.144531 30.191406 C 57.371094 29.09375 56.375 28.253906 55.15625 27.667969 C 54.476562 27.34375 53.769531 27.101562 53.035156 26.945312 C 53.007812 26.316406 52.921875 25.699219 52.777344 25.085938 C 52.066406 22.152344 49.714844 19.886719 46.910156 18.816406 C 43.824219 17.636719 40.480469 18.246094 37.542969 19.558594 C 36.578125 18.363281 35.359375 17.53125 33.886719 17.054688 C 31.722656 16.378906 29.363281 16.683594 27.238281 17.359375 C 24.777344 18.183594 22.503906 19.363281 20.414062 20.890625 C 18.398438 22.296875 16.585938 23.921875 14.96875 25.761719 C 14.238281 26.601562 13.574219 27.496094 12.921875 28.390625 C 12.058594 29.558594 11.269531 30.773438 10.558594 32.039062 C 9.871094 33.21875 9.359375 34.472656 9.027344 35.792969 C 8.78125 36.898438 8.75 38.082031 9.277344 39.113281 C 9.375 39.304688 9.664062 39.136719 9.570312 38.945312 C 9.101562 38.019531 9.136719 36.945312 9.347656 35.957031 C 9.632812 34.773438 10.074219 33.648438 10.671875 32.582031 C 11.777344 30.585938 13.050781 28.703125 14.488281 26.925781 C 15.703125 25.398438 17.070312 24.015625 18.585938 22.777344 C 20.285156 21.351562 22.117188 20.128906 24.089844 19.109375 C 27.410156 17.402344 31.816406 16.058594 35.289062 18.136719 C 36 18.570312 36.617188 19.105469 37.148438 19.742188 C 36.980469 19.820312 36.816406 19.898438 36.652344 19.984375 C 33.503906 21.585938 30.734375 23.90625 28.371094 26.496094 C 25.894531 29.1875 23.871094 32.171875 22.292969 35.457031 C 20.773438 38.652344 19.738281 42.140625 19.714844 45.691406 C 19.695312 48.226562 20.128906 51.363281 22.304688 53.03125 C 23.726562 54.121094 25.457031 54.136719 27.09375 53.671875 C 27.589844 54.902344 28.328125 56.089844 29.519531 56.707031 C 30.789062 57.363281 32.246094 57.148438 33.519531 56.621094 C 35.191406 55.925781 36.660156 54.777344 37.992188 53.582031 C 38.253906 53.347656 38.511719 53.105469 38.769531 52.863281 C 38.777344 52.964844 38.78125 53.070312 38.792969 53.171875 C 39 54.640625 39.59375 55.933594 40.578125 57.050781 C 40.851562 57.371094 41.144531 57.671875 41.457031 57.949219 C 41.609375 58.089844 41.765625 58.222656 41.925781 58.351562 C 42.066406 58.460938 42.214844 58.632812 42.402344 58.628906 C 42.804688 58.589844 43.203125 58.511719 43.589844 58.390625 C 43.980469 58.300781 44.363281 58.195312 44.746094 58.078125 C 46.222656 57.628906 47.613281 56.992188 48.917969 56.175781 C 51.484375 54.570312 53.570312 52.316406 55.191406 49.792969 C 56.835938 47.207031 58.070312 44.4375 58.890625 41.492188 C 59.613281 38.929688 60.035156 36.160156 59.535156 33.515625 C 59.34375 32.484375 58.976562 31.523438 58.429688 30.628906 C 59.1875 30.527344 59.945312 30.488281 60.710938 30.503906 C 61.609375 30.527344 62.5 30.621094 63.386719 30.785156 C 63.609375 30.8125 63.796875 30.914062 63.945312 31.082031 C 64.101562 31.230469 64.25 31.390625 64.394531 31.550781 C 64.675781 31.875 64.925781 32.222656 65.136719 32.59375 C 65.921875 33.984375 65.914062 35.558594 65.347656 37.027344 C 65.179688 37.453125 64.976562 37.867188 64.746094 38.265625 C 64.671875 38.402344 64.699219 38.507812 64.835938 38.585938 C 64.96875 38.664062 65.078125 38.636719 65.160156 38.507812 C 65.980469 37.078125 66.496094 35.4375 66.121094 33.796875 Z M 57.417969 29.992188 C 57.496094 30.082031 57.566406 30.175781 57.640625 30.269531 C 55.917969 30.566406 54.289062 31.128906 52.757812 31.964844 C 52.574219 32.0625 52.394531 32.167969 52.21875 32.273438 C 52.742188 30.695312 53.019531 29.078125 53.046875 27.421875 C 54.789062 27.800781 56.246094 28.660156 57.417969 29.992188 Z M 44.605469 18.726562 C 47.332031 19.070312 50.023438 20.695312 51.433594 23.054688 C 52.117188 24.230469 52.484375 25.496094 52.539062 26.847656 C 51.214844 26.636719 49.894531 26.644531 48.574219 26.863281 C 46.152344 27.246094 43.832031 28.171875 41.683594 29.316406 C 41.398438 29.46875 41.117188 29.625 40.835938 29.785156 C 40.699219 27.042969 40.136719 24.242188 38.945312 21.753906 C 38.640625 21.113281 38.273438 20.507812 37.847656 19.941406 C 39.96875 18.996094 42.285156 18.4375 44.605469 18.726562 Z M 36.722656 44.742188 C 35.472656 46.890625 33.894531 48.769531 31.992188 50.378906 C 31.027344 51.1875 29.984375 51.886719 28.863281 52.46875 C 28.390625 52.714844 27.902344 52.925781 27.394531 53.101562 C 27.378906 53.054688 27.355469 53.007812 27.339844 52.957031 C 27.007812 52.042969 26.78125 51.105469 26.664062 50.140625 C 26.472656 48.382812 26.84375 46.613281 27.457031 44.964844 C 28.960938 40.949219 31.875 37.460938 35.046875 34.605469 C 36.707031 33.089844 38.5 31.746094 40.417969 30.566406 C 40.46875 33.050781 40.179688 35.496094 39.550781 37.902344 C 38.925781 40.308594 37.980469 42.589844 36.722656 44.742188 Z M 25.398438 53.503906 C 24.425781 53.558594 23.535156 53.3125 22.734375 52.769531 C 21.929688 52.171875 21.347656 51.40625 20.984375 50.480469 C 19.945312 48.035156 20.03125 45.125 20.472656 42.558594 C 21.03125 39.527344 22.066406 36.667969 23.582031 33.976562 C 25.074219 31.265625 26.882812 28.777344 29.003906 26.511719 C 31.015625 24.324219 33.300781 22.46875 35.867188 20.949219 C 36.378906 20.65625 36.910156 20.378906 37.449219 20.121094 C 38.148438 21.074219 38.695312 22.105469 39.089844 23.21875 C 39.890625 25.425781 40.328125 27.699219 40.402344 30.042969 C 38.492188 31.183594 36.707031 32.492188 35.042969 33.964844 C 33.015625 35.730469 31.226562 37.707031 29.671875 39.890625 C 28.308594 41.828125 27.144531 43.96875 26.535156 46.261719 C 26.261719 47.265625 26.125 48.292969 26.128906 49.332031 C 26.171875 50.433594 26.363281 51.503906 26.703125 52.550781 C 26.773438 52.78125 26.847656 53.015625 26.933594 53.25 C 26.429688 53.394531 25.921875 53.480469 25.398438 53.503906 Z M 38.421875 52.527344 C 37.277344 53.667969 36.015625 54.667969 34.636719 55.519531 C 33.597656 56.136719 32.398438 56.679688 31.160156 56.644531 C 29.996094 56.613281 29.03125 55.964844 28.375 55.042969 C 28.042969 54.566406 27.773438 54.0625 27.558594 53.527344 C 28.257812 53.285156 28.929688 52.980469 29.574219 52.613281 C 32.105469 51.140625 34.214844 49.214844 35.898438 46.832031 C 37.636719 44.402344 38.914062 41.757812 39.738281 38.894531 C 40.566406 36.089844 40.9375 33.226562 40.855469 30.304688 C 42.605469 29.269531 44.453125 28.453125 46.398438 27.855469 C 48.183594 27.320312 50.074219 27.019531 51.9375 27.226562 C 52.144531 27.25 52.351562 27.28125 52.558594 27.320312 C 52.566406 28.109375 52.5 28.894531 52.363281 29.675781 C 52.179688 30.691406 51.921875 31.6875 51.585938 32.664062 C 50.417969 33.441406 49.320312 34.300781 48.292969 35.246094 C 45.625 37.644531 43.445312 40.414062 41.75 43.554688 C 40.925781 45.160156 40.1875 46.804688 39.539062 48.488281 C 39.03125 49.679688 38.765625 50.921875 38.742188 52.214844 C 38.632812 52.320312 38.53125 52.425781 38.421875 52.527344 Z M 51.316406 33.429688 C 50.902344 34.546875 50.417969 35.636719 49.902344 36.703125 C 49.242188 38.09375 48.515625 39.449219 47.714844 40.765625 C 46.035156 43.46875 44.175781 46.046875 42.136719 48.496094 C 41.21875 49.605469 40.257812 50.683594 39.25 51.707031 C 39.277344 51.277344 39.339844 50.851562 39.433594 50.429688 C 39.625 49.59375 39.90625 48.789062 40.273438 48.011719 C 40.640625 47.226562 40.914062 46.398438 41.273438 45.609375 C 41.988281 44.046875 42.824219 42.554688 43.789062 41.128906 C 45.746094 38.242188 48.132812 35.761719 50.953125 33.6875 C 51.070312 33.597656 51.195312 33.515625 51.316406 33.429688 Z M 59.261719 35.953125 C 59.25 38.253906 58.734375 40.535156 58.003906 42.707031 C 56.371094 47.570312 53.625 52.371094 49.292969 55.351562 C 47.210938 56.769531 44.921875 57.695312 42.433594 58.132812 C 41.269531 57.21875 40.246094 56.09375 39.695312 54.714844 C 39.402344 53.972656 39.25 53.203125 39.234375 52.410156 C 40.359375 51.296875 41.410156 50.113281 42.417969 48.902344 C 43.746094 47.304688 45.003906 45.648438 46.191406 43.945312 C 47.0625 42.695312 47.910156 41.417969 48.675781 40.097656 C 49.949219 37.917969 51.019531 35.640625 51.882812 33.269531 C 51.914062 33.175781 51.945312 33.082031 51.980469 32.988281 C 53.808594 31.824219 55.792969 31.058594 57.9375 30.699219 C 58.925781 32.246094 59.269531 34.136719 59.261719 35.953125 Z M 59.261719 35.953125 " fill-opacity="1" fill-rule="nonzero"/></g></svg>