<svg xmlns="http://www.w3.org/2000/svg" xmlns:xlink="http://www.w3.org/1999/xlink" width="100" zoomAndPan="magnify" viewBox="0 0 75 74.999997" height="100" preserveAspectRatio="xMidYMid meet" version="1.0"><defs><clipPath id="62d0529258"><path d="M 17.800781 3.75 L 57.550781 3.75 L 57.550781 71.25 L 17.800781 71.25 Z M 17.800781 3.75 " clip-rule="nonzero"/></clipPath></defs><g clip-path="url(#62d0529258)"><path fill="#000000" d="M 56.355469 24.738281 C 49.984375 27.308594 43.179688 28.621094 36.835938 31.253906 C 36.660156 31.324219 36.488281 31.402344 36.3125 31.476562 C 38.449219 27.957031 40.695312 24.507812 42.703125 20.917969 C 42.773438 20.789062 42.785156 20.65625 42.746094 20.515625 C 42.707031 20.375 42.625 20.269531 42.5 20.195312 C 42.371094 20.125 42.238281 20.105469 42.097656 20.136719 C 41.953125 20.171875 41.84375 20.25 41.765625 20.371094 C 39.96875 23.492188 37.988281 26.496094 36.066406 29.535156 C 35.730469 25.949219 35.433594 22.359375 35.171875 18.769531 C 34.832031 13.972656 34.523438 9.179688 34.25 4.378906 C 34.214844 3.757812 33.242188 3.75 33.273438 4.378906 C 33.648438 13.375 34.125 22.378906 34.925781 31.351562 C 34.859375 31.464844 34.789062 31.574219 34.722656 31.6875 C 31.402344 28.5 27.992188 25.414062 24.605469 22.367188 C 24.097656 21.910156 23.347656 22.648438 23.847656 23.117188 C 27.1875 26.238281 30.53125 29.378906 33.792969 32.597656 C 29.4375 34.59375 25.160156 36.753906 20.429688 37.585938 C 20.484375 37.390625 20.429688 37.226562 20.273438 37.097656 C 20.113281 36.96875 19.941406 36.949219 19.757812 37.039062 C 19.042969 37.398438 18.417969 37.433594 17.941406 38.121094 C 17.894531 38.203125 17.871094 38.289062 17.871094 38.382812 C 17.871094 38.476562 17.894531 38.566406 17.941406 38.644531 C 17.988281 38.726562 18.054688 38.792969 18.136719 38.839844 C 18.214844 38.886719 18.304688 38.910156 18.398438 38.910156 C 21.648438 39.023438 24.925781 37.863281 27.882812 36.648438 C 29.667969 35.917969 31.414062 35.101562 33.164062 34.292969 C 32.832031 34.867188 32.503906 35.445312 32.1875 36.027344 C 29.46875 41.011719 26.734375 46.832031 27.269531 52.648438 C 27.347656 53.480469 28.640625 53.507812 28.597656 52.648438 C 28.304688 46.777344 30.855469 41.171875 33.609375 36.117188 C 34.042969 35.320312 34.5 34.53125 34.957031 33.75 L 35.167969 33.960938 C 35.898438 41.507812 36.875 49.027344 38.265625 56.492188 C 39.148438 61.261719 40.210938 66.007812 41.519531 70.679688 C 41.578125 70.867188 41.695312 71.011719 41.871094 71.105469 C 42.046875 71.203125 42.230469 71.222656 42.421875 71.171875 C 42.613281 71.117188 42.761719 71.007812 42.863281 70.835938 C 42.964844 70.664062 42.988281 70.484375 42.941406 70.292969 C 39.929688 58.847656 37.832031 47.242188 36.660156 35.472656 C 42.054688 40.863281 46.898438 46.695312 51.195312 52.976562 C 51.65625 53.675781 52.785156 53.035156 52.332031 52.320312 C 47.757812 45.398438 42.457031 39.074219 36.429688 33.347656 C 36.414062 33.179688 36.390625 33.015625 36.375 32.851562 C 36.523438 32.785156 36.671875 32.71875 36.820312 32.65625 C 43.320312 29.914062 50.464844 28.925781 56.859375 25.929688 C 57.523438 25.617188 57.046875 24.457031 56.355469 24.738281 Z M 56.355469 24.738281 " fill-opacity="1" fill-rule="nonzero"/></g></svg>