<svg xmlns="http://www.w3.org/2000/svg" xmlns:xlink="http://www.w3.org/1999/xlink" width="100" zoomAndPan="magnify" viewBox="0 0 75 74.999997" height="100" preserveAspectRatio="xMidYMid meet" version="1.0"><defs><clipPath id="7be6ae9fc7"><path d="M 7.5 24.101562 L 67.5 24.101562 L 67.5 47.351562 L 7.5 47.351562 Z M 7.5 24.101562 " clip-rule="nonzero"/></clipPath></defs><g clip-path="url(#7be6ae9fc7)"><path fill="#000000" d="M 67 30.171875 C 66.910156 30.152344 66.824219 30.105469 66.757812 30.085938 C 66.363281 29.972656 65.921875 30.152344 65.726562 30.503906 C 65.636719 30.679688 65.460938 30.789062 65.265625 30.789062 C 64.824219 30.855469 64.410156 30.921875 63.96875 31.011719 C 63.816406 31.054688 63.664062 31.078125 63.507812 31.144531 C 63.199219 31.234375 62.914062 31.34375 62.609375 31.453125 C 62.5625 31.386719 62.542969 31.320312 62.5 31.253906 C 62.453125 31.035156 62.433594 30.8125 62.386719 30.570312 C 62.257812 29.621094 62.300781 28.671875 62.125 27.722656 C 62.101562 27.324219 62.039062 26.925781 61.949219 26.53125 C 61.882812 26.285156 61.816406 26.023438 61.773438 25.757812 C 61.730469 25.515625 61.707031 25.269531 61.664062 25.027344 C 61.578125 24.542969 61.378906 24.34375 60.894531 24.300781 C 60.5 24.234375 60.082031 24.253906 59.6875 24.320312 C 59.511719 24.367188 59.335938 24.386719 59.160156 24.386719 C 58.855469 24.386719 58.523438 24.410156 58.214844 24.476562 C 57.929688 24.519531 57.625 24.542969 57.339844 24.585938 C 56.964844 24.628906 56.570312 24.71875 56.195312 24.808594 C 55.582031 24.984375 54.988281 25.183594 54.394531 25.382812 C 54.242188 25.425781 54.089844 25.46875 53.933594 25.535156 C 53.058594 25.824219 52.199219 26.21875 51.433594 26.726562 C 50.949219 27.015625 50.488281 27.347656 50.003906 27.632812 C 49.433594 27.988281 48.863281 28.316406 48.292969 28.671875 C 48.074219 28.824219 47.851562 28.980469 47.632812 29.089844 C 47.261719 29.265625 46.886719 29.464844 46.535156 29.710938 C 45.722656 30.21875 44.933594 30.726562 44.140625 31.253906 C 43.59375 31.585938 43.066406 31.960938 42.5625 32.378906 C 42.496094 32.445312 42.429688 32.492188 42.363281 32.535156 C 41.660156 33.042969 41.023438 33.617188 40.367188 34.167969 C 40.300781 34.214844 40.210938 34.257812 40.125 34.300781 C 39.949219 33.925781 39.859375 33.507812 39.859375 33.085938 C 39.617188 32.292969 39.507812 31.429688 39.203125 30.660156 C 39.15625 30.570312 39.136719 30.460938 39.136719 30.347656 C 39.179688 29.90625 39.003906 29.511719 38.894531 29.113281 C 38.828125 28.957031 38.761719 28.804688 38.71875 28.628906 C 38.695312 28.429688 38.628906 28.25 38.5 28.097656 C 38.457031 28.03125 38.410156 27.941406 38.367188 27.875 C 38.257812 27.5 38.105469 27.125 37.90625 26.792969 C 37.753906 26.550781 37.578125 26.308594 37.378906 26.089844 C 37.246094 25.910156 37.09375 25.734375 36.941406 25.558594 C 36.589844 25.203125 36.195312 24.917969 35.753906 24.675781 C 35.316406 24.410156 34.808594 24.277344 34.304688 24.300781 C 33.710938 24.320312 33.121094 24.433594 32.546875 24.609375 C 31.210938 24.960938 29.9375 25.515625 28.75 26.242188 C 28.136719 26.597656 27.585938 27.015625 26.992188 27.390625 C 26.949219 27.414062 26.882812 27.414062 26.773438 27.414062 C 26.882812 26.949219 26.90625 26.484375 26.839844 26.023438 C 26.839844 25.644531 26.730469 25.292969 26.511719 24.984375 C 26.09375 24.386719 25.390625 24.101562 24.664062 24.210938 C 24.402344 24.277344 24.117188 24.367188 23.875 24.453125 C 23.304688 24.652344 22.777344 24.941406 22.316406 25.292969 C 22.03125 25.515625 21.722656 25.734375 21.417969 25.933594 C 21.019531 26.21875 20.605469 26.507812 20.230469 26.816406 C 19.855469 27.125 19.417969 27.480469 19.023438 27.832031 C 18.628906 28.1875 18.1875 28.539062 17.792969 28.914062 C 17.53125 29.15625 17.308594 29.421875 17.046875 29.664062 C 16.125 30.527344 15.246094 31.429688 14.410156 32.378906 C 13.796875 33.066406 13.226562 33.773438 12.65625 34.476562 C 12.039062 35.230469 11.46875 36 10.875 36.773438 C 10.722656 36.972656 10.589844 37.171875 10.4375 37.371094 C 9.886719 38.03125 9.363281 38.738281 8.902344 39.445312 C 8.570312 40.085938 8.199219 40.75 7.800781 41.390625 C 7.757812 41.457031 7.738281 41.5 7.691406 41.566406 C 7.648438 41.699219 7.757812 41.875 7.914062 41.851562 C 8.152344 41.808594 8.375 41.71875 8.613281 41.652344 C 8.636719 41.652344 8.636719 41.589844 8.636719 41.566406 C 8.570312 41.523438 8.503906 41.457031 8.417969 41.390625 C 8.503906 41.234375 8.59375 41.082031 8.679688 40.949219 C 8.769531 40.816406 8.902344 40.636719 9.03125 40.484375 C 9.230469 40.242188 9.339844 39.933594 9.515625 39.6875 C 9.734375 39.335938 10 39.003906 10.261719 38.695312 C 10.636719 38.296875 10.941406 37.855469 11.226562 37.371094 C 11.292969 37.238281 11.382812 37.128906 11.492188 37.039062 C 12.039062 36.707031 12.261719 36.089844 12.722656 35.671875 C 12.785156 35.605469 12.808594 35.515625 12.851562 35.449219 C 12.917969 35.363281 12.984375 35.25 13.074219 35.164062 C 13.160156 35.074219 13.25 34.984375 13.3125 34.898438 C 13.46875 34.65625 13.664062 34.410156 13.863281 34.191406 C 14.171875 33.816406 14.5 33.441406 14.851562 33.085938 C 14.894531 33.042969 14.917969 32.976562 14.960938 32.910156 C 15.046875 32.734375 15.179688 32.578125 15.335938 32.492188 C 15.640625 32.335938 15.839844 32.027344 15.859375 31.695312 L 16.058594 31.652344 C 16.257812 31.609375 16.433594 31.476562 16.542969 31.296875 C 16.738281 30.96875 17.003906 30.679688 17.308594 30.460938 C 17.421875 30.394531 17.507812 30.304688 17.574219 30.21875 C 17.792969 29.929688 18.144531 29.796875 18.277344 29.464844 C 18.605469 29.246094 18.890625 28.957031 19.199219 28.714844 C 19.570312 28.40625 19.945312 28.097656 20.339844 27.832031 C 20.734375 27.566406 21.066406 27.28125 21.417969 26.992188 C 21.546875 26.882812 21.722656 26.816406 21.855469 26.707031 C 22.183594 26.464844 22.515625 26.175781 22.867188 25.933594 C 23.152344 25.734375 23.457031 25.558594 23.789062 25.425781 C 24.074219 25.316406 24.359375 25.25 24.644531 25.226562 C 25.257812 25.183594 25.632812 25.515625 25.71875 26.132812 C 25.785156 26.839844 25.71875 27.546875 25.542969 28.230469 C 25.5 28.539062 25.300781 28.824219 25.015625 28.980469 C 24.953125 29.023438 24.90625 29.070312 24.863281 29.113281 C 24.644531 29.355469 24.402344 29.578125 24.117188 29.773438 C 23.941406 29.90625 23.789062 30.039062 23.65625 30.195312 C 23.152344 30.679688 22.691406 31.210938 22.164062 31.695312 C 21.679688 32.136719 21.285156 32.644531 20.84375 33.132812 C 20.449219 33.550781 20.097656 34.015625 19.726562 34.457031 C 19.441406 34.789062 19.15625 35.117188 18.890625 35.472656 C 18.5625 35.957031 18.277344 36.464844 17.96875 36.953125 C 17.882812 37.105469 17.792969 37.261719 17.707031 37.414062 C 17.332031 37.878906 17.046875 38.410156 16.71875 38.894531 C 16.5625 39.113281 16.433594 39.335938 16.320312 39.578125 C 15.992188 40.175781 15.664062 40.792969 15.378906 41.390625 C 15.160156 41.851562 14.984375 42.339844 14.808594 42.800781 C 14.566406 43.441406 14.390625 44.105469 14.347656 44.789062 C 14.300781 45.230469 14.347656 45.671875 14.476562 46.09375 C 14.566406 46.421875 14.761719 46.710938 15.070312 46.863281 C 15.179688 46.929688 15.289062 46.976562 15.378906 47.0625 C 15.773438 47.328125 16.257812 47.351562 16.671875 47.152344 C 17.132812 46.929688 17.550781 46.621094 17.882812 46.246094 C 18.035156 46.070312 18.167969 45.894531 18.296875 45.695312 C 18.40625 45.519531 18.539062 45.339844 18.695312 45.1875 C 18.871094 45.03125 18.980469 44.855469 19.023438 44.636719 C 19.042969 44.589844 19.066406 44.546875 19.109375 44.503906 C 19.308594 44.304688 19.460938 44.082031 19.570312 43.816406 C 19.617188 43.730469 19.660156 43.664062 19.726562 43.597656 C 20.011719 43.175781 20.296875 42.757812 20.558594 42.339844 C 20.691406 42.097656 20.84375 41.875 21.019531 41.699219 C 21.109375 41.609375 21.175781 41.5 21.21875 41.390625 C 21.261719 41.101562 21.4375 40.882812 21.570312 40.636719 C 21.765625 40.308594 21.964844 39.976562 22.117188 39.621094 C 22.230469 39.335938 22.359375 39.070312 22.515625 38.828125 C 22.753906 38.453125 22.976562 38.03125 23.128906 37.613281 C 23.171875 37.460938 23.238281 37.328125 23.328125 37.195312 C 23.457031 37.039062 23.523438 36.863281 23.566406 36.6875 C 23.566406 36.621094 23.589844 36.554688 23.632812 36.488281 C 23.742188 36.355469 23.832031 36.199219 23.851562 36.023438 C 23.917969 35.847656 24.074219 35.714844 24.074219 35.492188 C 24.09375 35.40625 24.117188 35.316406 24.160156 35.25 C 24.292969 35.050781 24.402344 34.832031 24.492188 34.589844 C 24.578125 34.347656 24.6875 34.101562 24.820312 33.882812 C 24.90625 33.707031 24.953125 33.527344 24.972656 33.332031 C 24.972656 33.199219 25.015625 33.066406 25.105469 32.953125 C 25.171875 32.84375 25.214844 32.734375 25.238281 32.625 C 25.28125 32.402344 25.347656 32.183594 25.433594 31.984375 C 25.542969 31.808594 25.632812 31.628906 25.675781 31.410156 C 25.675781 31.1875 25.875 30.988281 25.765625 30.746094 C 25.742188 30.703125 25.808594 30.636719 25.851562 30.570312 C 26.09375 30.152344 26.289062 29.6875 26.402344 29.203125 C 26.464844 28.980469 26.597656 28.78125 26.796875 28.648438 C 26.992188 28.515625 27.191406 28.363281 27.386719 28.207031 C 27.785156 27.808594 28.289062 27.613281 28.75 27.324219 C 29.210938 27.039062 29.761719 26.75 30.242188 26.464844 C 30.507812 26.308594 30.75 26.152344 31.011719 26.042969 C 31.1875 25.957031 31.386719 25.957031 31.558594 25.890625 C 32.109375 25.644531 32.679688 25.46875 33.25 25.359375 C 33.667969 25.25 34.085938 25.25 34.503906 25.359375 C 35.402344 25.667969 36.148438 26.265625 36.632812 27.082031 C 36.917969 27.523438 37.160156 27.988281 37.378906 28.472656 C 37.46875 28.78125 37.597656 29.070312 37.730469 29.355469 C 37.90625 29.644531 37.90625 29.953125 37.972656 30.261719 C 38.148438 30.96875 38.28125 31.675781 38.457031 32.359375 C 38.675781 33.285156 38.828125 34.234375 39.003906 35.164062 C 39.046875 35.382812 38.980469 35.625 38.828125 35.804688 C 38.652344 35.980469 38.5 36.15625 38.34375 36.378906 C 37.949219 36.972656 37.578125 37.589844 37.179688 38.1875 C 36.699219 38.960938 36.304688 39.753906 35.972656 40.59375 C 35.710938 41.210938 35.492188 41.851562 35.316406 42.492188 C 35.117188 43.15625 35.050781 43.839844 35.140625 44.523438 C 35.160156 45.011719 35.402344 45.453125 35.777344 45.738281 C 36.324219 46.226562 37.09375 46.335938 37.753906 46.046875 C 37.839844 46.003906 37.949219 45.960938 38.058594 45.960938 C 38.390625 45.980469 38.695312 45.761719 38.785156 45.453125 C 38.960938 45.453125 39.136719 45.40625 39.3125 45.339844 C 39.617188 45.121094 39.96875 44.945312 40.191406 44.613281 C 40.429688 44.214844 40.695312 43.816406 40.957031 43.421875 C 41.003906 43.355469 41.046875 43.265625 41.066406 43.175781 C 41.199219 42.691406 41.242188 42.160156 41.179688 41.652344 C 41.066406 40.949219 40.9375 40.242188 40.761719 39.535156 C 40.5625 38.761719 40.410156 37.945312 40.320312 37.148438 C 40.277344 36.996094 40.253906 36.839844 40.253906 36.6875 C 40.300781 36.464844 40.277344 36.222656 40.234375 36 C 40.191406 35.78125 40.277344 35.539062 40.476562 35.40625 C 40.605469 35.296875 40.738281 35.164062 40.847656 35.03125 C 40.957031 34.917969 41.089844 34.832031 41.199219 34.722656 C 41.527344 34.410156 41.878906 34.125 42.253906 33.859375 C 42.296875 33.839844 42.320312 33.773438 42.339844 33.726562 C 42.386719 33.683594 42.429688 33.640625 42.496094 33.59375 C 42.867188 33.375 43.21875 33.085938 43.527344 32.777344 C 43.59375 32.710938 43.726562 32.691406 43.789062 32.625 C 43.855469 32.558594 43.902344 32.425781 43.988281 32.335938 C 44.054688 32.269531 44.121094 32.226562 44.207031 32.203125 C 44.601562 32.09375 44.976562 31.871094 45.285156 31.585938 C 45.460938 31.453125 45.65625 31.34375 45.855469 31.234375 C 45.921875 31.1875 46.03125 31.167969 46.097656 31.121094 C 46.535156 30.8125 47.019531 30.546875 47.5 30.328125 C 47.546875 30.304688 47.566406 30.304688 47.589844 30.28125 C 47.765625 30.085938 48.074219 30.039062 48.25 29.863281 C 48.445312 29.6875 48.664062 29.554688 48.90625 29.445312 C 49.390625 29.15625 49.871094 28.871094 50.355469 28.582031 C 50.640625 28.472656 50.882812 28.296875 51.058594 28.054688 C 51.101562 27.988281 51.210938 27.964844 51.277344 27.921875 C 51.847656 27.632812 52.441406 27.433594 52.945312 27.039062 C 53.011719 26.992188 53.058594 26.972656 53.121094 26.949219 C 53.628906 26.816406 54.066406 26.507812 54.570312 26.332031 C 55.121094 26.132812 55.667969 25.976562 56.242188 25.867188 C 56.460938 25.84375 56.679688 25.800781 56.898438 25.710938 C 57.164062 25.558594 57.449219 25.492188 57.753906 25.515625 C 57.910156 25.492188 58.0625 25.46875 58.214844 25.425781 C 58.546875 25.382812 58.855469 25.226562 59.183594 25.226562 L 60.015625 25.226562 C 60.191406 25.203125 60.367188 25.25 60.5 25.382812 C 60.523438 25.535156 60.566406 25.757812 60.609375 25.957031 C 60.632812 26.109375 60.652344 26.265625 60.675781 26.417969 C 60.808594 26.992188 60.917969 27.589844 60.960938 28.1875 C 61.027344 28.757812 61.070312 29.332031 61.09375 29.90625 C 61.113281 30.480469 61.246094 31.054688 61.3125 31.628906 C 61.335938 31.785156 61.335938 31.9375 61.355469 32.09375 C 61.289062 32.160156 61.203125 32.226562 61.113281 32.269531 C 60.414062 32.644531 59.730469 33.109375 59.09375 33.59375 C 58.765625 33.859375 58.4375 34.101562 58.128906 34.390625 C 57.339844 35.164062 56.703125 36.089844 56.261719 37.105469 C 56.128906 37.347656 56.042969 37.636719 55.976562 37.902344 C 55.890625 38.363281 55.78125 38.851562 56.042969 39.292969 C 56.066406 39.867188 56.394531 40.261719 56.746094 40.660156 C 56.921875 40.859375 57.183594 41.015625 57.382812 41.210938 C 57.601562 41.433594 57.867188 41.609375 58.171875 41.699219 C 58.347656 41.765625 58.523438 41.851562 58.699219 41.941406 C 59.183594 42.292969 59.777344 42.449219 60.390625 42.382812 C 60.941406 42.339844 61.378906 42.183594 61.640625 41.609375 C 61.882812 41.058594 62.101562 40.507812 62.277344 39.953125 C 62.300781 39.867188 62.324219 39.777344 62.34375 39.710938 C 62.609375 39.046875 62.804688 38.34375 62.9375 37.636719 C 63.027344 37.195312 63.070312 36.773438 63.113281 36.332031 C 63.113281 35.757812 63.046875 35.183594 63.027344 34.609375 C 63.027344 34.523438 63.003906 34.433594 62.980469 34.347656 C 62.894531 33.925781 62.804688 33.527344 62.785156 33.109375 C 62.761719 32.953125 62.761719 32.824219 62.785156 32.667969 C 62.9375 32.492188 63.15625 32.359375 63.375 32.316406 C 63.488281 32.269531 63.617188 32.269531 63.726562 32.203125 C 64.1875 31.984375 64.695312 31.828125 65.222656 31.761719 C 65.683594 31.695312 66.121094 31.585938 66.539062 31.410156 C 66.78125 31.296875 67 31.144531 67.175781 30.945312 C 67.351562 30.769531 67.328125 30.480469 67.152344 30.328125 C 67.132812 30.21875 67.066406 30.195312 67 30.171875 Z M 24.863281 30.902344 C 24.753906 31.121094 24.6875 31.363281 24.621094 31.585938 C 24.492188 31.9375 24.359375 32.269531 24.25 32.625 C 24.117188 33 23.984375 33.394531 23.832031 33.773438 C 23.566406 34.410156 23.328125 35.03125 23.042969 35.648438 C 22.578125 36.6875 22.074219 37.703125 21.546875 38.738281 C 21.351562 39.136719 21.128906 39.511719 20.957031 39.910156 C 20.757812 40.351562 20.515625 40.769531 20.230469 41.167969 C 20.144531 41.324219 20.054688 41.457031 19.988281 41.632812 C 19.792969 42.074219 19.550781 42.515625 19.242188 42.890625 C 19.15625 42.980469 19.089844 43.089844 19.042969 43.199219 C 18.605469 43.996094 18.101562 44.765625 17.574219 45.496094 C 17.421875 45.71875 17.222656 45.894531 16.980469 46.003906 C 16.320312 46.335938 15.75 46.113281 15.488281 45.429688 C 15.378906 45.1875 15.355469 44.921875 15.421875 44.65625 C 15.53125 44.257812 15.574219 43.839844 15.664062 43.421875 C 15.707031 43.222656 15.796875 43.046875 15.816406 42.867188 C 15.859375 42.625 15.949219 42.382812 16.082031 42.160156 C 16.320312 41.785156 16.476562 41.390625 16.542969 40.949219 C 16.5625 40.835938 16.609375 40.75 16.695312 40.660156 C 16.847656 40.441406 17.023438 40.21875 17.179688 39.976562 C 17.246094 39.886719 17.289062 39.800781 17.332031 39.710938 C 17.507812 39.269531 17.75 38.871094 18.078125 38.539062 C 18.167969 38.453125 18.210938 38.34375 18.234375 38.230469 C 18.277344 37.921875 18.429688 37.636719 18.671875 37.414062 C 18.804688 37.261719 18.933594 37.105469 19.042969 36.929688 C 19.265625 36.621094 19.484375 36.3125 19.703125 35.980469 C 19.726562 35.914062 19.769531 35.847656 19.8125 35.804688 C 20.40625 35.230469 20.824219 34.5 21.394531 33.902344 C 21.703125 33.574219 22.007812 33.242188 22.316406 32.910156 C 22.710938 32.511719 23.085938 32.09375 23.457031 31.695312 C 23.699219 31.453125 23.941406 31.210938 24.203125 30.988281 C 24.445312 30.746094 24.6875 30.480469 24.90625 30.195312 C 24.996094 30.4375 24.972656 30.679688 24.863281 30.902344 Z M 39.949219 43.375 C 39.597656 44.039062 39.046875 44.570312 38.367188 44.878906 C 37.929688 45.121094 37.402344 45.144531 36.941406 44.964844 C 36.566406 44.855469 36.324219 44.523438 36.304688 44.148438 C 36.257812 43.75 36.28125 43.332031 36.390625 42.957031 C 36.433594 42.867188 36.457031 42.78125 36.457031 42.691406 C 36.457031 42.050781 36.742188 41.5 36.960938 40.925781 C 37.136719 40.441406 37.421875 40.019531 37.53125 39.511719 C 37.554688 39.425781 37.597656 39.359375 37.664062 39.292969 C 38.082031 38.628906 38.5 37.945312 38.917969 37.28125 C 39.003906 37.171875 39.113281 37.0625 39.222656 36.953125 C 39.265625 37.0625 39.289062 37.171875 39.3125 37.304688 C 39.3125 37.636719 39.355469 37.96875 39.441406 38.296875 C 39.507812 38.652344 39.554688 38.984375 39.617188 39.335938 C 39.707031 39.800781 39.816406 40.261719 39.925781 40.726562 C 40.058594 41.257812 40.167969 41.785156 40.191406 42.339844 C 40.234375 42.691406 40.144531 43.046875 39.949219 43.375 Z M 61.925781 36.773438 C 61.839844 37.703125 61.621094 38.605469 61.246094 39.46875 C 61.070312 39.886719 60.941406 40.328125 60.765625 40.75 C 60.71875 40.859375 60.675781 40.96875 60.632812 41.082031 C 60.566406 41.210938 60.476562 41.300781 60.414062 41.410156 C 60.148438 41.476562 59.863281 41.433594 59.621094 41.300781 C 59.007812 41.035156 58.390625 40.792969 57.910156 40.308594 C 57.558594 39.933594 57.230469 39.511719 57.164062 38.960938 C 57.097656 38.585938 57.097656 38.230469 57.164062 37.855469 C 57.230469 37.546875 57.359375 37.261719 57.515625 36.996094 C 57.667969 36.730469 57.886719 36.488281 57.953125 36.15625 C 57.976562 36.113281 57.996094 36.066406 58.042969 36.023438 C 58.480469 35.714844 58.722656 35.230469 59.09375 34.855469 C 59.140625 34.808594 59.183594 34.722656 59.226562 34.699219 C 59.621094 34.566406 59.863281 34.214844 60.238281 34.035156 C 60.367188 33.96875 60.476562 33.882812 60.566406 33.773438 C 60.699219 33.617188 60.875 33.484375 61.070312 33.394531 C 61.226562 33.332031 61.378906 33.265625 61.578125 33.175781 C 61.6875 33.507812 61.75 33.839844 61.796875 34.167969 C 61.863281 34.609375 61.90625 35.074219 61.925781 35.539062 C 61.972656 35.980469 61.972656 36.378906 61.925781 36.773438 Z M 61.925781 36.773438 " fill-opacity="1" fill-rule="nonzero"/></g></svg>