<svg xmlns="http://www.w3.org/2000/svg" xmlns:xlink="http://www.w3.org/1999/xlink" width="100" zoomAndPan="magnify" viewBox="0 0 75 74.999997" height="100" preserveAspectRatio="xMidYMid meet" version="1.0"><defs><clipPath id="c16fc0bfe6"><path d="M 7.5 9.375 L 67.5 9.375 L 67.5 65 L 7.5 65 Z M 7.5 9.375 " clip-rule="nonzero"/></clipPath></defs><g clip-path="url(#c16fc0bfe6)"><path fill="#000000" d="M 16.679688 16.679688 C 16.621094 16.714844 16.5625 16.746094 16.503906 16.78125 C 12.296875 19.242188 8.894531 22.253906 7.808594 25.503906 C 7.507812 26.402344 7.574219 27.113281 7.863281 27.671875 C 8.152344 28.230469 8.671875 28.644531 9.328125 28.933594 C 10.097656 29.269531 11.0625 29.433594 12.019531 29.488281 C 12.242188 31.492188 12.878906 33.554688 13.984375 35.636719 C 13.585938 36.445312 13.238281 37.277344 12.949219 38.121094 C 11.953125 40.996094 11.613281 44.484375 13.277344 47.203125 C 13.5 47.566406 13.753906 47.90625 14.035156 48.222656 C 14.03125 51.53125 14.847656 54.878906 16.71875 58.128906 C 20.335938 64.414062 26.027344 65.625 31.832031 64.351562 C 36.730469 63.273438 41.710938 60.402344 45.53125 57.359375 C 51.394531 61.929688 57.898438 57.863281 61.492188 52.988281 C 61.785156 52.589844 62.058594 52.1875 62.3125 51.78125 C 63.378906 51.214844 64.386719 50.378906 65.109375 49.40625 C 66.117188 48.046875 66.792969 46.652344 67 44.96875 C 67.03125 44.746094 66.871094 44.539062 66.644531 44.511719 C 66.417969 44.484375 66.214844 44.644531 66.1875 44.871094 C 65.996094 46.402344 65.371094 47.675781 64.449219 48.914062 C 64.089844 49.398438 63.652344 49.84375 63.171875 50.230469 C 63.675781 49.199219 64.015625 48.199219 64.167969 47.3125 C 64.371094 46.097656 64.210938 45.074219 63.675781 44.40625 C 63.1875 43.796875 62.226562 43.5625 61.488281 43.566406 C 61.304688 43.566406 61.125 43.578125 60.949219 43.597656 C 63.6875 40.164062 65.992188 36.199219 66.835938 31.9375 C 67.492188 28.601562 66.039062 26.457031 63.75 25.203125 C 63.378906 24.996094 62.984375 24.816406 62.570312 24.660156 L 62.570312 24.613281 L 62.574219 24.5625 C 63.558594 22.953125 63.882812 21.257812 62.847656 19.707031 C 62.101562 18.585938 61.058594 17.761719 59.84375 17.175781 C 57.875 15.421875 54.980469 14.636719 51.75 14.453125 C 49.964844 14.351562 48.078125 14.429688 46.203125 14.617188 C 45.78125 13.175781 44.625 12.164062 43.144531 11.488281 C 40.625 10.332031 37.171875 10.15625 35.253906 10.316406 C 35.085938 10.328125 34.914062 10.347656 34.734375 10.367188 C 33.621094 9.546875 31.96875 9.375 30.164062 9.613281 C 26.9375 10.039062 23.234375 11.714844 21.679688 12.667969 C 19.777344 13.832031 18.09375 15.179688 16.679688 16.679688 Z M 14.875 49.03125 C 14.996094 51.9375 15.789062 54.867188 17.429688 57.71875 C 20.832031 63.628906 26.195312 64.746094 31.65625 63.546875 C 36.382812 62.507812 41.183594 59.75 44.894531 56.8125 C 44.121094 56.085938 43.527344 55.257812 43.097656 54.363281 C 42.277344 54.425781 41.453125 54.425781 40.628906 54.359375 C 39.847656 54.300781 39.109375 54.191406 38.414062 54.046875 C 37.890625 54.199219 37.363281 54.332031 36.839844 54.449219 C 32.820312 55.335938 28.816406 55.089844 25.527344 53.015625 C 22.402344 53.25 19.507812 52.578125 17.355469 50.445312 C 16.457031 50.113281 15.613281 49.640625 14.875 49.03125 Z M 56.78125 48.117188 C 55.0625 49.679688 53.175781 51.019531 51.109375 52.0625 C 49.902344 53.402344 48.628906 54.671875 47.300781 55.867188 C 46.941406 56.183594 46.570312 56.503906 46.1875 56.824219 C 51.597656 60.886719 57.523438 56.992188 60.828125 52.5 L 60.945312 52.34375 C 60.109375 52.578125 59.402344 52.5625 58.828125 52.378906 C 57.402344 51.921875 56.683594 50.40625 56.730469 48.722656 C 56.738281 48.523438 56.753906 48.320312 56.78125 48.117188 Z M 49.167969 52.933594 C 49.015625 52.992188 48.863281 53.050781 48.707031 53.109375 C 47.183594 53.667969 45.59375 54.082031 43.976562 54.277344 C 44.367188 55.011719 44.886719 55.691406 45.542969 56.292969 C 45.960938 55.945312 46.367188 55.597656 46.75 55.253906 C 47.578125 54.511719 48.386719 53.734375 49.167969 52.933594 Z M 32.6875 51.21875 C 30.878906 51.9375 29.019531 52.503906 27.207031 52.808594 C 27.109375 52.824219 27.011719 52.839844 26.914062 52.855469 C 29.832031 54.3125 33.242188 54.402344 36.664062 53.648438 C 36.714844 53.636719 36.765625 53.625 36.816406 53.613281 C 35.160156 53.054688 33.789062 52.238281 32.6875 51.21875 Z M 42.449219 52.519531 C 41.683594 52.875 40.902344 53.199219 40.113281 53.484375 C 40.304688 53.507812 40.496094 53.527344 40.691406 53.542969 C 41.382812 53.597656 42.070312 53.601562 42.757812 53.5625 C 42.636719 53.222656 42.53125 52.871094 42.449219 52.519531 Z M 61.367188 29.980469 C 61.003906 30.925781 60.566406 31.875 60.074219 32.8125 C 58.898438 35.046875 57.386719 37.234375 55.726562 39.25 C 55.777344 39.382812 55.800781 39.53125 55.796875 39.6875 C 55.726562 41.347656 54.390625 43.152344 53.390625 44.363281 C 51.054688 47.191406 47.355469 50.101562 43.210938 52.152344 C 43.308594 52.609375 43.441406 53.058594 43.613281 53.492188 C 45.257812 53.316406 46.875 52.90625 48.425781 52.335938 C 49.171875 52.0625 49.898438 51.75 50.601562 51.398438 C 53.039062 48.679688 55.203125 45.691406 57.027344 42.5625 C 58.332031 40.316406 60.394531 36.457031 61.117188 32.824219 C 61.308594 31.847656 61.410156 30.886719 61.367188 29.980469 Z M 42.214844 49.65625 C 40.378906 50.265625 38.347656 50.648438 36.457031 50.503906 C 35.929688 50.460938 35.414062 50.378906 34.914062 50.25 C 34.460938 50.464844 34 50.671875 33.535156 50.871094 C 34.792969 51.941406 36.40625 52.75 38.382812 53.199219 C 39.707031 52.800781 41.019531 52.285156 42.296875 51.6875 C 42.203125 51.019531 42.175781 50.339844 42.214844 49.65625 Z M 19.273438 50.921875 C 20.78125 51.867188 22.546875 52.25 24.4375 52.238281 C 23.957031 51.851562 23.519531 51.421875 23.128906 50.953125 C 21.867188 51.113281 20.582031 51.113281 19.273438 50.921875 Z M 30.449219 48.238281 C 30.292969 48.332031 30.136719 48.425781 29.980469 48.515625 C 28.109375 49.597656 26.136719 50.40625 24.089844 50.800781 C 24.398438 51.128906 24.734375 51.433594 25.097656 51.714844 C 25.308594 51.878906 25.519531 52.03125 25.738281 52.175781 C 26.179688 52.132812 26.621094 52.074219 27.070312 52 C 28.71875 51.722656 30.410156 51.21875 32.058594 50.585938 C 31.980469 50.503906 31.90625 50.417969 31.835938 50.332031 C 31.285156 49.691406 30.824219 48.988281 30.449219 48.238281 Z M 61.734375 51.152344 C 62.582031 49.753906 63.15625 48.359375 63.355469 47.175781 C 63.515625 46.234375 63.449219 45.4375 63.035156 44.921875 C 62.695312 44.496094 62.003906 44.382812 61.492188 44.386719 C 60.964844 44.390625 60.492188 44.488281 60.070312 44.664062 C 59.632812 45.179688 59.191406 45.679688 58.742188 46.164062 C 58.464844 46.46875 58.179688 46.765625 57.890625 47.058594 C 57.679688 47.605469 57.570312 48.1875 57.554688 48.746094 C 57.515625 50.039062 57.984375 51.246094 59.078125 51.597656 C 59.75 51.8125 60.632812 51.699219 61.734375 51.152344 Z M 54.894531 40.230469 C 51.691406 43.90625 48.058594 46.902344 45.222656 48.382812 C 44.570312 48.726562 43.839844 49.058594 43.058594 49.355469 C 43.003906 50.007812 43.007812 50.664062 43.078125 51.304688 C 47.019531 49.320312 50.527344 46.539062 52.757812 43.839844 C 53.542969 42.886719 54.597656 41.546875 54.894531 40.230469 Z M 31.167969 47.785156 L 31.148438 47.800781 C 31.5 48.515625 31.9375 49.1875 32.460938 49.800781 C 32.59375 49.957031 32.734375 50.109375 32.878906 50.257812 C 33.183594 50.132812 33.488281 50 33.789062 49.867188 C 32.789062 49.429688 31.890625 48.753906 31.167969 47.785156 Z M 16.722656 39.59375 C 16.265625 40.675781 15.882812 41.777344 15.582031 42.890625 C 15.441406 45.171875 15.925781 47.523438 17.421875 49.304688 C 17.546875 49.453125 17.679688 49.597656 17.8125 49.734375 C 18.238281 49.882812 18.675781 49.992188 19.121094 50.066406 C 20.28125 50.261719 21.429688 50.296875 22.554688 50.191406 C 21.417969 48.515625 20.820312 46.496094 20.863281 44.433594 C 20.878906 43.847656 20.933594 43.265625 21.027344 42.691406 C 20.765625 42.582031 20.503906 42.460938 20.246094 42.332031 C 18.910156 41.65625 17.738281 40.703125 16.722656 39.59375 Z M 62.5 25.515625 C 62.398438 26.429688 62.207031 27.359375 61.933594 28.296875 C 62.308594 29.710938 62.253906 31.324219 61.921875 32.988281 C 61.179688 36.710938 59.078125 40.671875 57.738281 42.972656 C 56.265625 45.5 54.578125 47.933594 52.703125 50.214844 C 54.324219 49.183594 55.820312 47.960938 57.191406 46.59375 C 57.652344 45.492188 58.449219 44.519531 59.566406 43.988281 C 62.542969 40.453125 65.136719 36.292969 66.027344 31.777344 C 66.601562 28.878906 65.34375 27.011719 63.355469 25.921875 C 63.082031 25.773438 62.796875 25.636719 62.5 25.515625 Z M 29.707031 46.367188 C 26.679688 47.222656 23.957031 47.394531 21.875 46.519531 C 22.144531 47.804688 22.691406 49.023438 23.480469 50.074219 C 25.601562 49.734375 27.640625 48.921875 29.570312 47.804688 C 29.75 47.703125 29.925781 47.59375 30.105469 47.488281 C 29.953125 47.121094 29.820312 46.746094 29.707031 46.367188 Z M 43.402344 45.035156 C 43.257812 45.148438 43.113281 45.257812 42.96875 45.371094 C 41.273438 46.683594 38.863281 48.261719 36.148438 49.644531 C 36.273438 49.660156 36.394531 49.671875 36.519531 49.683594 C 38.421875 49.828125 40.476562 49.40625 42.296875 48.761719 C 42.351562 48.367188 42.421875 47.972656 42.515625 47.578125 C 42.71875 46.707031 43.019531 45.851562 43.402344 45.035156 Z M 52.386719 33.597656 L 52.035156 33.820312 C 47.777344 36.949219 41.789062 41.050781 36.027344 43.859375 C 34.722656 45.117188 33.324219 46.296875 31.851562 47.324219 C 32.648438 48.382812 33.6875 49.03125 34.84375 49.378906 C 37.882812 47.917969 40.609375 46.15625 42.46875 44.71875 C 43.195312 44.15625 43.910156 43.570312 44.609375 42.957031 C 45.480469 41.734375 46.550781 40.679688 47.769531 39.898438 C 49.3125 38.25 50.726562 36.480469 51.957031 34.617188 C 52.175781 34.28125 52.441406 33.863281 52.722656 33.382812 Z M 14.984375 46.03125 C 14.914062 46.652344 14.875 47.277344 14.863281 47.90625 C 15.246094 48.296875 15.675781 48.640625 16.140625 48.9375 C 15.582031 48.042969 15.207031 47.058594 14.984375 46.03125 Z M 54.59375 39.328125 C 54.460938 39.289062 54.308594 39.265625 54.140625 39.25 C 52.507812 39.09375 49.679688 39.824219 49.21875 40.039062 C 48.902344 40.1875 48.597656 40.351562 48.300781 40.539062 C 47.316406 41.582031 46.285156 42.578125 45.214844 43.519531 C 44.324219 44.792969 43.667969 46.257812 43.316406 47.765625 C 43.265625 47.984375 43.21875 48.203125 43.179688 48.425781 C 43.777344 48.183594 44.335938 47.921875 44.84375 47.65625 C 47.707031 46.160156 51.390625 43.085938 54.59375 39.328125 Z M 14.476562 36.515625 C 14.195312 37.132812 13.945312 37.753906 13.726562 38.386719 C 12.808594 41.042969 12.441406 44.265625 13.980469 46.773438 C 14.011719 46.824219 14.042969 46.878906 14.078125 46.929688 C 14.171875 45.523438 14.40625 44.125 14.769531 42.75 C 14.796875 42.363281 14.839844 41.980469 14.898438 41.605469 C 15.066406 40.507812 15.347656 39.433594 15.722656 38.386719 C 15.269531 37.785156 14.855469 37.15625 14.476562 36.515625 Z M 33.542969 44.992188 C 33.015625 45.214844 32.496094 45.421875 31.980469 45.613281 C 31.6875 45.722656 31.398438 45.828125 31.109375 45.925781 C 31.1875 46.164062 31.289062 46.398438 31.410156 46.632812 C 32.140625 46.121094 32.851562 45.570312 33.542969 44.992188 Z M 29.15625 42.765625 C 29.097656 42.789062 29.039062 42.8125 28.980469 42.832031 C 27.492188 43.367188 25.9375 43.585938 24.40625 43.480469 C 23.703125 44.207031 23.050781 44.972656 22.484375 45.785156 C 22.472656 45.804688 22.453125 45.828125 22.429688 45.855469 C 24.339844 46.566406 26.789062 46.355469 29.5 45.574219 C 29.292969 44.671875 29.179688 43.730469 29.15625 42.765625 Z M 21.8125 42.980469 C 21.742188 43.464844 21.699219 43.957031 21.6875 44.453125 C 21.679688 44.777344 21.6875 45.101562 21.71875 45.425781 C 21.753906 45.386719 21.789062 45.351562 21.808594 45.316406 C 22.285156 44.636719 22.816406 43.984375 23.390625 43.359375 C 22.859375 43.273438 22.332031 43.144531 21.8125 42.980469 Z M 37.21875 41.476562 C 35.132812 42.171875 33.070312 42.628906 31.128906 42.707031 C 30.894531 43.53125 30.8125 44.34375 30.921875 45.121094 C 31.175781 45.035156 31.433594 44.941406 31.695312 44.84375 C 32.953125 44.375 34.25 43.808594 35.554688 43.175781 C 36.128906 42.625 36.683594 42.054688 37.21875 41.476562 Z M 29.976562 42.707031 C 29.988281 43.167969 30.019531 43.625 30.070312 44.074219 C 30.097656 43.628906 30.171875 43.171875 30.285156 42.714844 C 30.183594 42.714844 30.082031 42.710938 29.976562 42.707031 Z M 26.132812 41.851562 C 25.820312 42.125 25.515625 42.402344 25.21875 42.683594 C 26.027344 42.679688 26.839844 42.578125 27.640625 42.378906 C 27.421875 42.324219 27.199219 42.261719 26.984375 42.1875 C 26.660156 42.082031 26.375 41.96875 26.132812 41.851562 Z M 29.257812 32.078125 C 25.765625 34.546875 22.855469 38.121094 21.964844 42.164062 C 22.660156 42.398438 23.375 42.550781 24.097656 42.628906 C 24.519531 42.207031 24.957031 41.800781 25.402344 41.40625 C 25.085938 41.144531 24.914062 40.863281 24.84375 40.5625 C 24.777344 40.285156 24.792969 39.984375 24.882812 39.636719 C 24.996094 39.210938 25.234375 38.703125 25.554688 38.09375 C 26.300781 36.664062 27.128906 35.265625 28.011719 33.914062 C 28.414062 33.296875 28.832031 32.683594 29.257812 32.078125 Z M 42.734375 39.167969 C 41.457031 39.796875 40.15625 40.382812 38.851562 40.886719 C 38.523438 41.261719 38.1875 41.636719 37.84375 42.007812 C 39.492188 41.128906 41.136719 40.164062 42.734375 39.167969 Z M 43.796875 30.09375 C 43.285156 30.339844 42.78125 30.59375 42.273438 30.855469 C 39.730469 34.847656 34.992188 39.132812 31.613281 41.390625 C 31.539062 41.550781 31.472656 41.714844 31.40625 41.875 C 33.507812 41.746094 35.75 41.164062 38 40.332031 C 38.125 40.285156 38.246094 40.238281 38.371094 40.191406 C 39.566406 38.8125 40.648438 37.414062 41.601562 36.09375 C 42.164062 35.3125 43.039062 34.230469 43.605469 33.101562 C 43.953125 32.410156 44.191406 31.703125 44.121094 31.042969 C 44.082031 30.675781 43.96875 30.359375 43.796875 30.09375 Z M 37.417969 22.222656 C 36.609375 22.507812 35.78125 22.773438 34.945312 23.015625 C 33.328125 23.480469 31.6875 23.859375 30.128906 24.121094 C 25.652344 27.085938 21.535156 31.152344 18.703125 35.773438 C 18.105469 36.75 17.5625 37.753906 17.089844 38.773438 C 18.089844 39.921875 19.261719 40.914062 20.617188 41.597656 C 20.808594 41.695312 21 41.785156 21.191406 41.867188 C 22.324219 37.007812 26.203125 32.789062 30.582031 30.261719 C 31.179688 29.472656 31.792969 28.691406 32.414062 27.925781 C 34.015625 25.953125 35.683594 24.054688 37.417969 22.222656 Z M 29.484375 39.144531 C 28.609375 39.820312 27.707031 40.519531 26.824219 41.261719 C 26.953125 41.308594 27.09375 41.359375 27.242188 41.410156 C 27.859375 41.613281 28.5 41.746094 29.164062 41.824219 C 29.199219 40.941406 29.304688 40.046875 29.484375 39.144531 Z M 35.335938 34.941406 C 33.671875 36.039062 32.058594 37.191406 30.496094 38.367188 C 30.238281 39.394531 30.074219 40.421875 30.007812 41.433594 C 30.308594 41.261719 30.628906 41.066406 30.964844 40.847656 C 31.320312 40.089844 31.769531 39.328125 32.289062 38.574219 C 33.152344 37.324219 34.207031 36.097656 35.335938 34.941406 Z M 34.339844 29.425781 C 33.269531 29.800781 32.191406 30.292969 31.144531 30.882812 C 30.292969 32.019531 29.472656 33.175781 28.699219 34.363281 C 27.832031 35.695312 27.019531 37.070312 26.28125 38.476562 C 26.039062 38.933594 25.847656 39.324219 25.730469 39.667969 C 25.640625 39.9375 25.59375 40.167969 25.640625 40.375 C 25.683594 40.554688 25.8125 40.707031 26.015625 40.851562 L 26.027344 40.859375 C 27.027344 40.007812 28.0625 39.207031 29.054688 38.4375 C 29.296875 38.25 29.535156 38.066406 29.777344 37.882812 C 30.578125 34.914062 32.132812 31.957031 34.339844 29.425781 Z M 40.703125 31.695312 C 40.140625 32.003906 39.585938 32.320312 39.03125 32.644531 C 36.855469 34.472656 34.570312 36.71875 32.964844 39.039062 C 32.792969 39.292969 32.628906 39.542969 32.472656 39.792969 C 35.203125 37.761719 38.472656 34.714844 40.703125 31.695312 Z M 55.886719 26.082031 C 54.59375 26.242188 53.519531 26.429688 53.199219 26.519531 C 50.253906 27.316406 47.359375 28.417969 44.546875 29.734375 C 44.753906 30.085938 44.890625 30.492188 44.9375 30.957031 C 45.023438 31.761719 44.765625 32.628906 44.339844 33.472656 C 43.753906 34.640625 42.851562 35.765625 42.269531 36.574219 C 41.578125 37.53125 40.820312 38.527344 40 39.527344 C 44.273438 37.6875 48.429688 35.128906 51.582031 33.132812 C 52.375 32.550781 53.109375 32 53.769531 31.5 C 54.5625 29.957031 55.351562 28.15625 55.800781 26.429688 C 55.828125 26.3125 55.859375 26.199219 55.886719 26.082031 Z M 60.839844 27.65625 C 58.90625 29.222656 55.371094 31.664062 54.199219 32.445312 C 53.621094 33.515625 53.0625 34.433594 52.640625 35.070312 C 51.730469 36.449219 50.726562 37.777344 49.640625 39.042969 C 50.792969 38.726562 52.878906 38.304688 54.21875 38.429688 C 54.582031 38.464844 54.894531 38.546875 55.144531 38.667969 C 56.746094 36.714844 58.207031 34.59375 59.347656 32.429688 C 60.066406 31.058594 60.664062 29.671875 61.082031 28.296875 C 61.015625 28.078125 60.933594 27.863281 60.839844 27.65625 Z M 27.851562 24.425781 C 27.304688 24.476562 26.78125 24.507812 26.28125 24.519531 C 21.457031 26.953125 17.316406 30.941406 14.910156 35.621094 C 15.261719 36.253906 15.648438 36.878906 16.074219 37.480469 C 17.648438 33.710938 20.464844 30.304688 23.929688 27.375 C 25.164062 26.328125 26.480469 25.34375 27.851562 24.425781 Z M 42.363281 29.054688 C 42.035156 28.933594 41.679688 28.847656 41.304688 28.78125 C 39.539062 28.476562 37.371094 28.707031 35.820312 29.03125 C 33.507812 31.375 31.828125 34.183594 30.878906 37.058594 C 33.324219 35.253906 35.898438 33.527344 38.570312 31.960938 C 39.9375 30.816406 41.253906 29.835938 42.34375 29.09375 Z M 20.539062 27.363281 C 18.847656 28.210938 17.074219 28.882812 15.234375 29.28125 C 14.664062 29.402344 13.796875 29.5 12.859375 29.507812 C 13.058594 31.214844 13.574219 32.96875 14.449219 34.742188 C 15.960938 31.972656 18.0625 29.457031 20.539062 27.363281 Z M 59.449219 25.820312 C 58.617188 25.824219 57.660156 25.890625 56.746094 25.984375 C 56.703125 26.199219 56.652344 26.417969 56.59375 26.636719 C 56.269531 27.886719 55.773438 29.175781 55.222656 30.386719 C 55.421875 30.230469 55.613281 30.082031 55.789062 29.945312 C 56.738281 29.207031 58.511719 27.925781 60.023438 26.40625 C 59.839844 26.199219 59.648438 26.003906 59.449219 25.820312 Z M 38.652344 22.117188 C 36.703125 24.144531 34.835938 26.246094 33.054688 28.441406 C 32.804688 28.746094 32.558594 29.054688 32.316406 29.363281 C 32.910156 29.089844 33.507812 28.847656 34.105469 28.640625 C 34.4375 28.523438 34.886719 28.398438 35.414062 28.28125 C 37.335938 26.375 39.667969 24.78125 42.359375 23.703125 C 41.410156 22.75 40.023438 22.308594 38.652344 22.117188 Z M 56.132812 24.65625 C 56.089844 24.660156 56.046875 24.664062 56 24.667969 C 51.78125 25.015625 47.765625 26.738281 44.160156 28.894531 C 44.09375 28.9375 44.023438 28.980469 43.949219 29.027344 L 43.992188 29.066406 L 44.007812 29.082031 C 46.925781 27.703125 49.925781 26.554688 52.984375 25.726562 C 53.339844 25.628906 54.59375 25.414062 56.054688 25.242188 C 56.085938 25.042969 56.113281 24.847656 56.132812 24.65625 Z M 34.488281 11.222656 C 29.996094 11.789062 22.90625 14.058594 17.210938 17.324219 C 14.21875 20.542969 12.535156 24.460938 12.785156 28.691406 C 13.6875 28.691406 14.519531 28.59375 15.058594 28.476562 C 17.953125 27.855469 20.675781 26.511719 23.148438 24.914062 C 23.328125 24.796875 23.582031 24.617188 23.894531 24.378906 C 22.660156 24.167969 21.789062 23.699219 21.40625 23.011719 C 21.328125 22.875 21.328125 22.742188 21.378906 22.621094 C 21.402344 22.5625 21.4375 22.5 21.496094 22.449219 C 21.539062 22.40625 21.660156 22.332031 21.679688 22.320312 C 24.46875 20.085938 27.878906 18.652344 31.328125 17.640625 C 32.140625 16.773438 32.882812 15.90625 33.488281 15.09375 C 34.195312 14.144531 34.710938 13.269531 34.886719 12.554688 C 34.980469 12.183594 34.984375 11.863281 34.820312 11.621094 C 34.722656 11.472656 34.609375 11.339844 34.488281 11.222656 Z M 15.035156 18.667969 C 11.902344 20.757812 9.457031 23.167969 8.585938 25.761719 C 8.375 26.398438 8.390625 26.898438 8.59375 27.296875 C 8.800781 27.695312 9.1875 27.976562 9.660156 28.183594 C 10.316406 28.46875 11.132812 28.613281 11.949219 28.667969 C 11.746094 25.042969 12.890625 21.632812 15.035156 18.667969 Z M 42.886719 24.378906 C 40.621094 25.253906 38.613281 26.507812 36.898438 28.015625 C 38.34375 27.808594 40.015625 27.726562 41.445312 27.972656 C 41.894531 28.050781 42.320312 28.160156 42.710938 28.308594 C 43.34375 26.8125 43.511719 25.449219 42.886719 24.378906 Z M 55.90625 23.847656 C 54.195312 23.285156 52.335938 23.058594 50.679688 23.03125 C 48.144531 22.984375 45.800781 23.375 43.667969 24.09375 C 44.273438 25.257812 44.1875 26.703125 43.601562 28.273438 C 43.648438 28.246094 43.695312 28.21875 43.738281 28.191406 C 47.441406 25.972656 51.570312 24.214844 55.90625 23.847656 Z M 57.714844 24.613281 C 57.457031 24.609375 57.203125 24.609375 56.953125 24.613281 C 56.9375 24.792969 56.917969 24.972656 56.894531 25.152344 C 57.402344 25.101562 57.925781 25.058594 58.425781 25.035156 C 58.195312 24.882812 57.957031 24.742188 57.714844 24.613281 Z M 59.417969 24.734375 C 59.535156 24.820312 59.648438 24.910156 59.757812 25.003906 C 60.242188 25.011719 60.675781 25.042969 61.03125 25.105469 C 61.078125 25.113281 61.125 25.125 61.167969 25.132812 L 61.207031 25.082031 C 60.628906 24.925781 60.027344 24.8125 59.417969 24.734375 Z M 59.386719 17.867188 C 58.71875 17.554688 57.992188 17.316406 57.234375 17.140625 C 54.082031 16.410156 50.390625 16.730469 47.820312 17.148438 C 47.097656 17.265625 46.347656 17.410156 45.582031 17.585938 L 45.546875 17.625 C 45.523438 17.652344 45.5 17.679688 45.476562 17.707031 L 45.417969 17.777344 C 46.476562 17.679688 47.539062 17.648438 48.566406 17.703125 C 51.558594 17.855469 54.28125 18.738281 56.015625 20.800781 C 56.597656 21.492188 56.890625 22.375 56.964844 23.375 C 57.285156 23.5 57.597656 23.644531 57.902344 23.796875 C 59.191406 23.835938 60.507812 24.019531 61.722656 24.375 L 61.734375 24.355469 L 61.765625 24.304688 C 61.800781 22.730469 61.519531 21.21875 60.839844 19.820312 C 60.464844 19.058594 59.976562 18.414062 59.386719 17.867188 Z M 45.535156 15.511719 C 41.015625 16.03125 36.640625 17.140625 34.015625 17.773438 C 33.269531 17.957031 32.519531 18.152344 31.765625 18.367188 C 29.90625 20.335938 27.726562 22.296875 26.039062 23.707031 L 26.070312 23.703125 L 26.09375 23.703125 C 28.25 22.632812 30.535156 21.863281 32.863281 21.464844 C 36.980469 19.324219 41.273438 17.75 45.109375 16.851562 C 45.40625 16.429688 45.570312 16.019531 45.542969 15.609375 C 45.542969 15.574219 45.539062 15.542969 45.535156 15.511719 Z M 30.128906 18.875 C 27.328125 19.804688 24.609375 21.058594 22.316406 22.863281 C 22.515625 23.0625 22.800781 23.21875 23.140625 23.34375 C 23.601562 23.507812 24.160156 23.613281 24.800781 23.664062 C 26.242188 22.5 28.265625 20.734375 30.128906 18.875 Z M 30.214844 22.933594 C 29.636719 23.113281 29.0625 23.3125 28.496094 23.53125 C 28.804688 23.496094 29.121094 23.453125 29.441406 23.402344 C 29.699219 23.246094 29.957031 23.089844 30.214844 22.933594 Z M 56.121094 23.066406 C 56.023438 22.402344 55.792969 21.8125 55.386719 21.328125 C 53.792969 19.433594 51.273438 18.664062 48.523438 18.523438 C 47.179688 18.453125 45.785156 18.535156 44.40625 18.714844 C 43.183594 19.675781 41.449219 20.609375 39.46875 21.433594 C 40.886719 21.730469 42.265625 22.3125 43.1875 23.390625 C 45.460938 22.59375 47.96875 22.160156 50.691406 22.207031 C 52.414062 22.238281 54.335938 22.480469 56.121094 23.066406 Z M 35.46875 22 C 34.757812 22.035156 34.046875 22.109375 33.34375 22.21875 C 32.929688 22.433594 32.519531 22.660156 32.113281 22.894531 C 32.976562 22.699219 33.851562 22.476562 34.71875 22.226562 C 34.96875 22.152344 35.21875 22.078125 35.46875 22 Z M 61.53125 19.367188 C 61.546875 19.398438 61.5625 19.429688 61.578125 19.460938 C 62.082031 20.5 62.386719 21.601562 62.515625 22.742188 C 62.769531 21.867188 62.71875 20.992188 62.164062 20.164062 C 61.972656 19.875 61.761719 19.613281 61.53125 19.367188 Z M 39.964844 19.617188 C 38.664062 19.972656 37.476562 20.375 36.488281 20.769531 C 36.164062 20.898438 35.835938 21.035156 35.507812 21.175781 C 35.988281 21.15625 36.46875 21.148438 36.945312 21.160156 C 37.230469 21.167969 37.519531 21.179688 37.816406 21.203125 C 38.128906 21.089844 38.4375 20.96875 38.738281 20.847656 C 39.144531 20.433594 39.554688 20.027344 39.964844 19.617188 Z M 42.496094 19.027344 C 42.175781 19.089844 41.859375 19.15625 41.546875 19.226562 C 41.304688 19.457031 41.066406 19.691406 40.824219 19.925781 C 41.421875 19.636719 41.984375 19.335938 42.496094 19.027344 Z M 45.367188 14.707031 C 44.976562 13.570312 44 12.78125 42.804688 12.234375 C 40.480469 11.167969 37.320312 10.992188 35.476562 11.121094 L 35.503906 11.164062 C 35.78125 11.574219 35.84375 12.117188 35.683594 12.753906 C 35.488281 13.550781 34.933594 14.527344 34.148438 15.582031 C 33.753906 16.117188 33.300781 16.667969 32.804688 17.230469 C 33.144531 17.144531 33.484375 17.058594 33.824219 16.976562 C 36.457031 16.335938 40.832031 15.234375 45.367188 14.707031 Z M 56.46875 16.152344 C 55.050781 15.640625 53.425781 15.371094 51.703125 15.273438 C 49.980469 15.175781 48.164062 15.246094 46.355469 15.425781 C 46.359375 15.46875 46.363281 15.511719 46.363281 15.554688 C 46.386719 15.902344 46.320312 16.257812 46.175781 16.613281 C 46.691406 16.507812 47.195312 16.414062 47.691406 16.335938 C 50.089844 15.945312 53.441406 15.648438 56.46875 16.152344 Z M 33.347656 10.5625 C 32.480469 10.28125 31.402344 10.277344 30.269531 10.429688 C 27.167969 10.839844 23.605469 12.449219 22.105469 13.367188 C 21.203125 13.921875 20.347656 14.519531 19.554688 15.15625 C 24.300781 12.839844 29.527344 11.199219 33.347656 10.5625 Z M 33.347656 10.5625 " fill-opacity="1" fill-rule="evenodd"/></g></svg>