<svg xmlns="http://www.w3.org/2000/svg" xmlns:xlink="http://www.w3.org/1999/xlink" width="100" zoomAndPan="magnify" viewBox="0 0 75 74.999997" height="100" preserveAspectRatio="xMidYMid meet" version="1.0"><defs><clipPath id="6686fa0c56"><path d="M 8 23 L 66 23 L 66 54 L 8 54 Z M 8 23 " clip-rule="nonzero"/></clipPath><clipPath id="b772028a62"><path d="M 5.183594 29.074219 L 63.988281 17.160156 L 69.796875 45.828125 L 10.992188 57.742188 Z M 5.183594 29.074219 " clip-rule="nonzero"/></clipPath><clipPath id="099c6f0edd"><path d="M 5.183594 29.074219 L 63.988281 17.160156 L 69.796875 45.828125 L 10.992188 57.742188 Z M 5.183594 29.074219 " clip-rule="nonzero"/></clipPath><clipPath id="13af5700de"><path d="M 5.183594 29.074219 L 63.988281 17.160156 L 69.796875 45.828125 L 10.992188 57.742188 Z M 5.183594 29.074219 " clip-rule="nonzero"/></clipPath></defs><g clip-path="url(#6686fa0c56)"><g clip-path="url(#b772028a62)"><g clip-path="url(#099c6f0edd)"><g clip-path="url(#13af5700de)"><path fill="#000000" d="M 29.351562 27 C 29.164062 27.085938 28.972656 27.164062 28.785156 27.253906 C 23.414062 29.875 18.355469 33.027344 13.34375 36.265625 C 13.046875 36.457031 12.746094 36.652344 12.421875 36.792969 C 11.953125 36.996094 11.523438 36.914062 11.21875 36.476562 C 10.9375 36.078125 11.023438 35.574219 11.425781 35.199219 C 11.570312 35.0625 11.734375 34.949219 11.898438 34.84375 C 18.203125 30.796875 24.621094 26.949219 31.496094 23.929688 C 31.730469 23.828125 31.96875 23.722656 32.210938 23.644531 C 32.675781 23.5 33.121094 23.53125 33.464844 23.917969 C 33.820312 24.324219 33.796875 24.785156 33.550781 25.238281 C 33.296875 25.710938 32.929688 26.101562 32.566406 26.496094 C 31.796875 27.332031 31.011719 28.152344 30.210938 29.003906 C 30.457031 29.015625 30.574219 28.863281 30.714844 28.769531 C 32.359375 27.710938 34 26.648438 35.644531 25.589844 C 35.808594 25.484375 35.984375 25.386719 36.167969 25.320312 C 36.597656 25.167969 37.003906 25.230469 37.289062 25.605469 C 37.570312 25.972656 37.566406 26.394531 37.289062 26.757812 C 37.0625 27.054688 36.789062 27.316406 36.507812 27.5625 C 32.28125 31.277344 28.109375 35.050781 23.988281 38.882812 C 23.019531 39.78125 22.085938 40.714844 21.105469 41.664062 C 21.390625 41.714844 21.472656 41.527344 21.59375 41.417969 C 26.246094 37.347656 30.890625 33.277344 35.535156 29.199219 C 36.257812 28.566406 36.808594 28.476562 37.238281 28.9375 C 37.648438 29.375 37.527344 29.894531 36.921875 30.59375 C 32.253906 35.949219 27.527344 41.253906 23.023438 46.75 C 22.886719 46.917969 22.761719 47.089844 22.601562 47.296875 C 22.933594 47.289062 23.066406 47.066406 23.234375 46.917969 C 27.71875 43.046875 32.015625 38.96875 36.460938 35.054688 C 38.402344 33.34375 40.351562 31.648438 42.296875 29.945312 C 42.894531 29.421875 43.46875 29.355469 43.871094 29.765625 C 44.296875 30.199219 44.195312 30.792969 43.613281 31.363281 C 38.699219 36.148438 34.339844 41.441406 29.773438 46.539062 C 29.710938 46.613281 29.660156 46.695312 29.554688 46.839844 C 29.824219 46.800781 29.933594 46.640625 30.054688 46.523438 C 35.554688 41.132812 41.238281 35.933594 46.464844 30.277344 C 47.039062 29.652344 47.683594 29.097656 48.308594 28.519531 C 48.492188 28.347656 48.699219 28.179688 48.917969 28.058594 C 49.355469 27.816406 49.800781 27.792969 50.171875 28.171875 C 50.558594 28.570312 50.542969 29.027344 50.253906 29.472656 C 49.945312 29.9375 49.535156 30.308594 49.128906 30.6875 C 44.648438 34.867188 40.480469 39.339844 36.554688 44.042969 C 35.089844 45.800781 33.675781 47.601562 32.351562 49.46875 C 32.261719 49.597656 32.136719 49.699219 32.027344 49.8125 C 32.074219 49.855469 32.121094 49.898438 32.171875 49.945312 C 32.316406 49.816406 32.46875 49.695312 32.609375 49.5625 C 35.601562 46.746094 38.398438 43.738281 41.207031 40.746094 C 45.546875 36.128906 49.785156 31.421875 54.050781 26.734375 C 54.371094 26.382812 54.730469 26.117188 55.238281 26.238281 C 55.933594 26.402344 56.140625 27.214844 55.621094 27.851562 C 54.230469 29.546875 52.957031 31.332031 51.6875 33.117188 C 49.648438 36 47.542969 38.835938 45.785156 41.910156 C 45.582031 42.265625 45.402344 42.636719 45.304688 43.09375 C 45.476562 42.933594 45.65625 42.785156 45.820312 42.617188 C 48.492188 39.945312 50.855469 37.007812 53.164062 34.03125 C 55.476562 31.050781 57.820312 28.101562 60.171875 25.15625 C 60.65625 24.554688 61.242188 24.40625 61.699219 24.765625 C 62.160156 25.125 62.152344 25.691406 61.695312 26.34375 C 59.164062 29.945312 56.628906 33.539062 54.429688 37.359375 C 53.75 38.539062 53.117188 39.742188 52.625 41.011719 C 52.523438 41.277344 52.390625 41.542969 52.394531 41.972656 C 52.835938 41.597656 53.203125 41.3125 53.542969 41 C 56.699219 38.050781 59.21875 34.597656 61.476562 30.945312 C 62.253906 29.691406 62.960938 28.386719 63.71875 27.117188 C 64.195312 26.316406 64.742188 26.066406 65.28125 26.363281 C 65.84375 26.671875 65.921875 27.292969 65.4375 28.125 C 63.789062 30.972656 61.984375 33.734375 60.40625 36.628906 C 59.585938 38.136719 58.777344 39.648438 58.136719 41.242188 C 57.886719 41.859375 57.617188 42.472656 57.679688 43.175781 C 57.714844 43.558594 57.488281 43.851562 57.113281 43.992188 C 56.742188 44.128906 56.40625 44.035156 56.132812 43.761719 C 55.828125 43.46875 55.722656 43.089844 55.777344 42.679688 C 55.835938 42.253906 55.933594 41.832031 56.019531 41.386719 C 55.792969 41.339844 55.722656 41.539062 55.609375 41.644531 C 54.777344 42.402344 53.988281 43.210938 53.011719 43.792969 C 52.359375 44.1875 51.65625 44.554688 50.914062 44.046875 C 50.148438 43.523438 50.246094 42.726562 50.382812 41.953125 C 50.507812 41.246094 50.785156 40.574219 50.910156 39.824219 C 50.773438 39.976562 50.636719 40.125 50.503906 40.277344 C 49.3125 41.675781 48.113281 43.066406 46.765625 44.316406 C 46.210938 44.828125 45.652344 45.328125 44.96875 45.660156 C 44.445312 45.917969 43.90625 46 43.398438 45.632812 C 42.890625 45.269531 42.789062 44.734375 42.871094 44.15625 C 43.042969 42.980469 43.617188 41.964844 44.171875 40.941406 C 44.375 40.574219 44.589844 40.207031 44.839844 39.765625 C 44.511719 39.871094 44.410156 40.074219 44.269531 40.226562 C 40.453125 44.277344 36.726562 48.414062 32.574219 52.136719 C 31.957031 52.691406 31.324219 53.230469 30.578125 53.613281 C 30.066406 53.875 29.550781 53.9375 29.078125 53.550781 C 28.625 53.179688 28.589844 52.667969 28.722656 52.144531 C 28.957031 51.234375 29.472656 50.457031 29.96875 49.671875 C 30.117188 49.433594 30.269531 49.191406 30.476562 48.867188 C 30.113281 48.976562 29.980469 49.183594 29.816406 49.339844 C 28.511719 50.546875 27.21875 51.765625 25.820312 52.863281 C 25.445312 53.15625 25.070312 53.449219 24.636719 53.648438 C 24.226562 53.835938 23.824219 53.816406 23.460938 53.535156 C 23.097656 53.25 23.007812 52.855469 23.09375 52.421875 C 23.191406 51.945312 23.457031 51.546875 23.722656 51.160156 C 25.207031 49.011719 26.90625 47.035156 28.582031 45.042969 C 28.738281 44.851562 28.890625 44.660156 28.953125 44.378906 C 28.75 44.554688 28.546875 44.726562 28.351562 44.90625 C 25.957031 47.054688 23.582031 49.230469 20.992188 51.148438 C 20.566406 51.464844 20.132812 51.785156 19.625 51.964844 C 19.1875 52.117188 18.761719 52.105469 18.40625 51.769531 C 18.050781 51.433594 18.011719 51.011719 18.136719 50.570312 C 18.300781 50.011719 18.625 49.535156 18.949219 49.066406 C 20.753906 46.445312 22.804688 44.015625 24.875 41.605469 C 25.320312 41.089844 25.753906 40.570312 26.117188 39.980469 C 24.992188 40.960938 23.871094 41.953125 22.742188 42.929688 C 20.324219 45.019531 17.902344 47.109375 15.472656 49.191406 C 14.769531 49.796875 14.03125 50.363281 13.226562 50.835938 C 12.566406 51.21875 12.027344 51.203125 11.644531 50.820312 C 11.25 50.425781 11.238281 49.835938 11.648438 49.1875 C 12.113281 48.449219 12.679688 47.789062 13.261719 47.144531 C 16.902344 43.113281 20.757812 39.292969 24.746094 35.609375 C 24.921875 35.449219 25.089844 35.289062 25.238281 35.097656 C 24.691406 35.351562 24.242188 35.742188 23.777344 36.105469 C 20.183594 38.917969 16.753906 41.925781 13.277344 44.878906 C 12.539062 45.503906 11.78125 46.105469 11.027344 46.714844 C 10.875 46.835938 10.714844 46.953125 10.542969 47.054688 C 10 47.378906 9.484375 47.34375 9.140625 46.964844 C 8.800781 46.585938 8.792969 46.050781 9.1875 45.558594 C 9.519531 45.144531 9.894531 44.757812 10.277344 44.390625 C 13.105469 41.691406 16.042969 39.113281 18.992188 36.546875 C 22.210938 33.75 25.429688 30.953125 28.503906 27.996094 C 28.8125 27.699219 29.109375 27.390625 29.410156 27.085938 C 29.390625 27.058594 29.371094 27.03125 29.351562 27.003906 Z M 29.351562 27 " fill-opacity="1" fill-rule="nonzero"/></g></g></g></g></svg>