<svg xmlns="http://www.w3.org/2000/svg" xmlns:xlink="http://www.w3.org/1999/xlink" width="100" zoomAndPan="magnify" viewBox="0 0 75 74.999997" height="100" preserveAspectRatio="xMidYMid meet" version="1.0"><defs><clipPath id="22a6b82122"><path d="M 15 13 L 59 13 L 59 54 L 15 54 Z M 15 13 " clip-rule="nonzero"/></clipPath><clipPath id="fdb0b6c091"><path d="M 68.992188 37.445312 L 27.820312 67.542969 L 6.132812 37.875 L 47.304688 7.777344 Z M 68.992188 37.445312 " clip-rule="nonzero"/></clipPath><clipPath id="35727b6acb"><path d="M 68.992188 37.445312 L 27.820312 67.542969 L 6.132812 37.875 L 47.304688 7.777344 Z M 68.992188 37.445312 " clip-rule="nonzero"/></clipPath><clipPath id="14123e4c3e"><path d="M 68.992188 37.445312 L 27.820312 67.542969 L 6.132812 37.875 L 47.304688 7.777344 Z M 68.992188 37.445312 " clip-rule="nonzero"/></clipPath></defs><g clip-path="url(#22a6b82122)"><g clip-path="url(#fdb0b6c091)"><g clip-path="url(#35727b6acb)"><g clip-path="url(#14123e4c3e)"><path fill="#000000" d="M 21.394531 47.441406 C 22.574219 42.808594 22.429688 37.722656 23.125 33.019531 C 23.761719 35.796875 23.988281 38.652344 24.515625 41.457031 C 24.949219 43.769531 26.351562 51.472656 27.644531 52.941406 C 29.71875 55.289062 30.371094 50.09375 30.511719 48.976562 C 31.546875 40.859375 30.613281 32.203125 31.800781 24.046875 C 32.21875 24.207031 32.195312 25.074219 32.257812 25.472656 C 32.457031 26.785156 32.574219 28.273438 32.707031 29.613281 C 33.203125 34.550781 32.90625 42.171875 33.894531 46.597656 C 33.972656 46.945312 34.03125 47.453125 34.300781 47.695312 C 35.746094 48.96875 36.011719 45.527344 36.132812 44.722656 C 37.363281 36.675781 37.207031 28.167969 39.390625 20.257812 C 39.464844 19.980469 39.839844 18.542969 40.078125 18.582031 C 41.574219 27.375 40.648438 36.378906 40.78125 45.261719 C 42.039062 46.828125 42.480469 45.210938 42.859375 44.035156 C 43.816406 41.089844 44.492188 36.648438 45.078125 33.503906 C 45.542969 31 45.722656 28.128906 46.324219 25.710938 C 46.410156 25.375 46.300781 25.019531 46.722656 24.839844 L 44.121094 45.582031 C 44.277344 46.867188 45.117188 46.792969 45.824219 45.839844 C 46.671875 44.6875 47.867188 39.492188 48.46875 37.746094 C 48.546875 37.523438 48.472656 36.960938 48.90625 37.136719 C 48.621094 39.40625 48.082031 41.660156 47.8125 43.929688 C 47.652344 45.273438 47.070312 49.882812 47.53125 50.855469 C 47.65625 51.128906 47.914062 51.417969 48.21875 51.460938 C 49.539062 51.648438 50.765625 47.902344 51.234375 46.820312 C 53.191406 42.304688 55.214844 37.039062 56.753906 32.371094 C 57.066406 31.425781 58.414062 27.597656 58.03125 26.945312 C 57.800781 26.554688 57.144531 26.285156 56.78125 26.601562 C 56.207031 27.101562 56.539062 28.023438 56.402344 28.585938 C 55.054688 34.128906 52.136719 39.726562 50.308594 45.15625 L 48.863281 47.992188 L 53.847656 16.984375 C 53.421875 16.160156 52.953125 16.234375 52.410156 16.949219 L 48.886719 30.851562 L 46.574219 38.394531 C 47.453125 30.1875 48.988281 21.988281 49.121094 13.730469 C 47.625 11.765625 47.023438 14.667969 46.703125 15.925781 L 42.488281 38.464844 L 42.308594 25.113281 C 42.09375 23.71875 42.15625 16.234375 40.191406 16.285156 C 38.742188 16.324219 38.171875 19.105469 37.867188 20.203125 C 36.171875 26.347656 36.164062 32.96875 35.054688 39.214844 L 34.007812 27.601562 C 33.738281 26.222656 33.605469 21.339844 32.144531 20.851562 C 30.3125 20.238281 30.082031 25.78125 29.984375 26.828125 C 29.230469 34.957031 30.019531 43.25 28.519531 51.308594 C 27.25 47.960938 26.566406 44.332031 25.917969 40.820312 C 25.523438 38.6875 24.582031 29.503906 23.621094 28.425781 C 22.023438 26.636719 21.621094 31.035156 21.527344 31.84375 C 20.9375 36.957031 21.140625 42.148438 19.910156 47.21875 C 19.808594 47.632812 19.097656 50.726562 18.601562 49.398438 C 17.148438 45.488281 18.355469 38.761719 17.109375 35.082031 C 16.78125 34.105469 16.125 34.464844 15.90625 35.292969 C 16.378906 39.484375 15.921875 44.355469 16.824219 48.453125 C 18.101562 54.265625 20.40625 51.296875 21.390625 47.441406 Z M 21.394531 47.441406 " fill-opacity="1" fill-rule="nonzero"/></g></g></g></g></svg>