<svg xmlns="http://www.w3.org/2000/svg" xmlns:xlink="http://www.w3.org/1999/xlink" width="100" zoomAndPan="magnify" viewBox="0 0 75 74.999997" height="100" preserveAspectRatio="xMidYMid meet" version="1.0"><defs><clipPath id="0767c5fab7"><path d="M 7.5 18.832031 L 67.5 18.832031 L 67.5 56.332031 L 7.5 56.332031 Z M 7.5 18.832031 " clip-rule="nonzero"/></clipPath></defs><g clip-path="url(#0767c5fab7)"><path fill="#000000" d="M 21.347656 29.96875 C 22.242188 29.910156 23.019531 29.855469 23.824219 29.800781 C 24.101562 28.902344 24.347656 28.027344 24.644531 27.167969 C 24.851562 26.578125 25.117188 26.007812 25.378906 25.441406 C 25.472656 25.234375 25.605469 25.042969 25.757812 24.875 C 26.292969 24.269531 26.835938 24.300781 27.277344 24.992188 C 27.457031 25.273438 27.582031 25.605469 27.652344 25.933594 C 27.867188 26.90625 28.039062 27.886719 28.246094 28.957031 C 29.285156 28.621094 30.328125 28.308594 31.347656 27.933594 C 31.527344 27.867188 31.644531 27.550781 31.730469 27.328125 C 32.179688 26.1875 32.597656 25.035156 33.058594 23.902344 C 33.25 23.425781 33.480469 22.886719 34.109375 22.933594 C 34.726562 22.976562 35.007812 23.488281 35.191406 24.015625 C 35.339844 24.441406 35.4375 24.890625 35.523438 25.335938 C 35.609375 25.78125 35.648438 26.234375 35.71875 26.753906 C 36.136719 26.679688 36.523438 26.632812 36.898438 26.539062 C 39.628906 25.84375 42.390625 25.34375 45.210938 25.316406 C 47.820312 25.292969 50.429688 25.417969 52.992188 26.003906 C 53.96875 26.230469 54.835938 26.699219 55.605469 27.355469 C 55.789062 27.511719 56.039062 27.648438 56.269531 27.675781 C 58.152344 27.894531 60.042969 28.085938 61.957031 28.289062 C 62.152344 28.046875 62.082031 27.480469 62.613281 27.582031 C 63.234375 27.695312 63.074219 28.273438 63.183594 28.683594 C 63.734375 28.972656 64.308594 29.21875 64.824219 29.554688 C 65.960938 30.304688 66.851562 31.292969 67.335938 32.585938 C 67.476562 32.964844 67.492188 33.414062 67.46875 33.828125 C 67.390625 35.257812 66.878906 36.5625 66.121094 37.75 C 65.652344 38.488281 65.097656 39.183594 64.488281 39.8125 C 63.808594 40.511719 63.066406 40.351562 62.648438 39.472656 C 62.429688 39.015625 62.292969 38.515625 62.140625 38.027344 C 62.050781 37.734375 62 37.425781 61.902344 36.984375 C 61.0625 38.742188 60.441406 40.46875 59.136719 41.699219 C 59.414062 42.535156 59.652344 43.289062 59.910156 44.039062 C 60.546875 45.90625 60.644531 47.839844 60.597656 49.789062 C 60.59375 49.902344 60.625 50.046875 60.570312 50.125 C 60.449219 50.296875 60.269531 50.570312 60.140625 50.554688 C 59.9375 50.53125 59.640625 50.339844 59.589844 50.160156 C 59.46875 49.757812 59.484375 49.316406 59.433594 48.890625 C 59.226562 47.179688 58.714844 45.554688 58.042969 43.972656 C 58.011719 43.898438 57.941406 43.84375 57.800781 43.667969 C 57.597656 44.003906 57.40625 44.289062 57.246094 44.597656 C 56.515625 46.015625 55.738281 47.40625 54.605469 48.554688 C 54.289062 48.875 53.964844 49.195312 53.597656 49.449219 C 52.878906 49.941406 52.171875 49.691406 51.964844 48.847656 C 51.839844 48.332031 51.828125 47.773438 51.847656 47.234375 C 51.894531 45.8125 51.988281 44.390625 52.058594 42.96875 C 52.066406 42.859375 52.0625 42.746094 51.957031 42.585938 C 51.59375 43.203125 51.222656 43.816406 50.875 44.445312 C 49.671875 46.601562 48.1875 48.519531 46.277344 50.097656 C 45.449219 50.78125 44.671875 51.53125 43.816406 52.179688 C 43.28125 52.585938 42.644531 52.859375 42.054688 53.191406 C 41.472656 53.519531 40.839844 53.433594 40.222656 53.414062 C 39.800781 53.402344 39.5625 53.121094 39.441406 52.738281 C 39.347656 52.449219 39.265625 52.15625 39.15625 51.777344 C 38.902344 51.9375 38.683594 52.054688 38.484375 52.199219 C 36.683594 53.511719 34.769531 54.605469 32.613281 55.199219 C 31.441406 55.523438 30.238281 55.671875 29.007812 55.691406 C 28.023438 55.707031 27.042969 55.960938 26.058594 56.050781 C 24.390625 56.207031 22.710938 56.332031 21.101562 55.726562 C 20.441406 55.480469 19.800781 55.152344 19.214844 54.765625 C 18.785156 54.484375 18.371094 54.375 17.867188 54.367188 C 16.851562 54.355469 15.820312 54.363281 14.816406 54.210938 C 12.925781 53.925781 11.332031 53.050781 10.128906 51.519531 C 9.9375 51.273438 9.703125 51.0625 9.507812 50.816406 C 8.296875 49.3125 7.894531 47.632812 8.546875 45.785156 C 9.164062 44.035156 9.890625 42.316406 11.101562 40.890625 C 12 39.839844 13.015625 38.886719 14.027344 37.84375 C 13.214844 37.417969 12.335938 36.957031 11.382812 36.457031 C 11.132812 37.035156 10.84375 37.578125 10.652344 38.15625 C 10.046875 39.96875 9.472656 41.789062 8.902344 43.609375 C 8.792969 43.960938 8.746094 44.332031 8.660156 44.691406 C 8.542969 45.171875 8.324219 45.363281 7.996094 45.289062 C 7.667969 45.214844 7.507812 44.9375 7.636719 44.457031 C 8.003906 43.078125 8.363281 41.699219 8.808594 40.34375 C 9.300781 38.832031 9.882812 37.34375 10.445312 35.785156 C 10.0625 35.46875 9.671875 35.148438 9.285156 34.828125 C 9.113281 34.679688 8.929688 34.539062 8.777344 34.371094 C 8.128906 33.636719 8.199219 32.824219 8.988281 32.234375 C 9.253906 32.035156 9.578125 31.894531 9.894531 31.785156 C 10.375 31.621094 10.867188 31.449219 11.367188 31.378906 C 12.078125 31.277344 12.398438 30.863281 12.65625 30.222656 C 13.816406 27.371094 15.015625 24.535156 16.222656 21.703125 C 16.558594 20.917969 16.972656 20.167969 17.355469 19.402344 C 17.390625 19.328125 17.417969 19.222656 17.480469 19.183594 C 17.683594 19.054688 17.925781 18.832031 18.109375 18.867188 C 18.300781 18.90625 18.488281 19.179688 18.582031 19.394531 C 18.671875 19.589844 18.660156 19.847656 18.640625 20.070312 C 18.515625 21.347656 18.40625 22.625 18.234375 23.898438 C 17.957031 25.929688 17.632812 27.960938 17.335938 29.992188 C 17.324219 30.070312 17.355469 30.15625 17.378906 30.339844 C 17.703125 30.3125 18.023438 30.285156 18.371094 30.253906 C 18.644531 29.066406 18.898438 27.929688 19.175781 26.796875 C 19.324219 26.1875 19.507812 25.589844 19.679688 24.988281 C 19.71875 24.851562 19.777344 24.71875 19.839844 24.589844 C 19.984375 24.296875 20.171875 24.042969 20.550781 24.097656 C 20.886719 24.148438 21.011719 24.40625 21.070312 24.699219 C 21.136719 25.035156 21.21875 25.371094 21.234375 25.710938 C 21.289062 26.765625 21.316406 27.820312 21.347656 28.875 C 21.355469 29.207031 21.347656 29.542969 21.347656 29.96875 M 34.066406 44.128906 C 33.957031 43.59375 33.847656 43.058594 33.71875 42.417969 C 33.5 43.1875 32.910156 43.785156 33.304688 44.660156 C 33.464844 44.574219 33.585938 44.515625 33.707031 44.453125 C 33.761719 44.511719 33.816406 44.566406 33.871094 44.625 C 34.042969 44.449219 34.214844 44.269531 34.382812 44.09375 C 34.359375 44.0625 34.335938 44.03125 34.3125 43.996094 C 34.230469 44.042969 34.148438 44.085938 34.066406 44.128906 M 44.03125 45.824219 C 44.136719 45.796875 44.269531 45.800781 44.347656 45.742188 C 45.546875 44.8125 46.660156 43.792969 47.375 42.425781 C 47.605469 41.980469 47.726562 41.46875 47.84375 40.976562 C 47.882812 40.804688 47.75 40.589844 47.671875 40.300781 C 47.226562 40.601562 46.871094 40.785156 46.582031 41.046875 C 45.90625 41.652344 45.277344 42.3125 44.597656 42.917969 C 44.023438 43.433594 43.90625 44.03125 44.066406 44.765625 C 44.144531 45.105469 44.0625 45.484375 44.050781 45.847656 C 43.476562 46.035156 43.285156 45.550781 42.949219 45.089844 C 42.402344 46.042969 41.90625 46.898438 41.414062 47.753906 L 41.578125 47.898438 C 42.261719 47.375 42.949219 46.859375 43.621094 46.324219 C 43.785156 46.191406 43.894531 45.992188 44.03125 45.824219 M 57.195312 42.609375 C 56.722656 41.976562 56.3125 41.398438 55.867188 40.847656 C 55.480469 40.367188 55.097656 39.867188 54.628906 39.46875 C 53.472656 38.484375 52.015625 38.285156 50.585938 38.050781 C 50.417969 38.023438 50.121094 38.167969 50.039062 38.320312 C 49.628906 39.0625 49.152344 39.789062 49.152344 40.695312 C 49.152344 40.886719 49.082031 41.082031 49.03125 41.273438 C 48.664062 42.652344 47.9375 43.828125 46.984375 44.871094 C 46.503906 45.398438 46.035156 45.933594 45.558594 46.464844 C 44.242188 47.929688 42.769531 49.222656 41.160156 50.347656 C 40.238281 50.988281 40.164062 51.132812 40.441406 52.371094 C 41.054688 52.625 41.578125 52.304688 42.101562 52.046875 C 43.347656 51.441406 44.300781 50.445312 45.355469 49.578125 C 48.003906 47.390625 49.828125 44.601562 51.238281 41.507812 C 51.507812 40.910156 51.71875 40.285156 52.023438 39.707031 C 52.113281 39.527344 52.433594 39.339844 52.613281 39.367188 C 52.792969 39.394531 52.957031 39.675781 53.082031 39.875 C 53.148438 39.984375 53.128906 40.152344 53.128906 40.296875 C 53.132812 40.921875 53.148438 41.550781 53.125 42.175781 C 53.050781 44.003906 52.957031 45.824219 52.878906 47.648438 C 52.867188 47.941406 52.914062 48.230469 52.945312 48.679688 C 55.078125 47.007812 55.917969 44.679688 57.195312 42.609375 M 29.246094 40.097656 C 29.109375 40.402344 29 40.695312 28.847656 40.96875 C 28.695312 41.242188 28.515625 41.519531 28.121094 41.421875 C 27.792969 41.335938 27.695312 41.082031 27.664062 40.777344 C 27.640625 40.5625 27.601562 40.347656 27.5625 40.09375 C 26.582031 40.042969 25.652344 40.007812 24.726562 39.941406 C 24.292969 39.90625 23.976562 40.054688 23.675781 40.359375 C 23.140625 40.90625 22.546875 41.398438 22.035156 41.96875 C 21.761719 42.273438 21.542969 42.671875 21.429688 43.066406 C 21.285156 43.5625 21.285156 44.109375 20.546875 44.058594 C 20.488281 44.050781 20.394531 44.144531 20.359375 44.210938 C 19.910156 45.035156 19.550781 45.886719 19.460938 46.9375 C 20.117188 47.152344 20.71875 47.410156 21.34375 47.539062 C 23.105469 47.898438 24.839844 47.554688 26.5625 47.207031 C 26.761719 47.167969 26.960938 46.925781 27.085938 46.726562 C 27.878906 45.480469 28.636719 44.210938 29.777344 43.234375 C 30.296875 42.796875 30.824219 42.367188 31.328125 41.910156 C 31.503906 41.753906 31.734375 41.546875 31.753906 41.339844 C 31.804688 40.878906 31.742188 40.402344 31.722656 39.925781 C 30.851562 39.984375 30.09375 40.039062 29.246094 40.097656 M 14.746094 38.933594 C 14.5625 38.972656 14.503906 38.976562 14.457031 39.003906 C 14.382812 39.042969 14.316406 39.097656 14.25 39.152344 C 11.878906 41.039062 10.371094 43.503906 9.445312 46.367188 C 9.128906 47.351562 9.199219 48.335938 9.691406 49.1875 C 10.824219 51.140625 12.3125 52.71875 14.664062 53.136719 C 15.386719 53.265625 16.125 53.300781 16.859375 53.363281 C 17.039062 53.378906 17.222656 53.328125 17.507812 53.296875 C 17 52.628906 16.535156 52.066406 16.128906 51.464844 C 15.261719 50.191406 14.890625 48.785156 15.195312 47.246094 C 15.3125 46.660156 15.503906 46.089844 15.628906 45.507812 C 15.679688 45.265625 15.707031 44.996094 15.648438 44.765625 C 15.519531 44.273438 15.328125 43.800781 15.15625 43.300781 C 15.046875 43.332031 14.964844 43.34375 14.894531 43.378906 C 14.257812 43.683594 13.976562 43.523438 14.011719 42.851562 C 14.03125 42.511719 14.089844 42.171875 14.15625 41.839844 C 14.339844 40.894531 14.539062 39.953125 14.746094 38.933594 M 56.4375 28.671875 C 56.722656 29.726562 56.359375 30.4375 55.835938 31.109375 C 55.730469 31.238281 55.71875 31.480469 55.738281 31.664062 C 55.976562 34.101562 56.253906 36.535156 56.460938 38.976562 C 56.546875 39.980469 57.152344 40.597656 57.800781 41.378906 C 58.269531 40.953125 58.765625 40.664062 59.03125 40.226562 C 59.636719 39.238281 60.289062 38.226562 60.628906 37.132812 C 61.183594 35.34375 61.542969 33.492188 61.898438 31.648438 C 62.03125 30.945312 61.917969 30.191406 61.917969 29.363281 C 60.132812 29.136719 58.394531 28.917969 56.4375 28.671875 M 29.042969 54.429688 C 29.664062 54.226562 30.152344 54.101562 30.613281 53.910156 C 31.734375 53.4375 32.90625 53.046875 33.847656 52.230469 C 34.492188 51.675781 35.117188 51.09375 35.726562 50.496094 C 36.925781 49.320312 38.117188 48.132812 38.941406 46.640625 C 39.445312 45.726562 39.820312 44.757812 40 43.582031 C 39.0625 44.007812 38.25 44.402344 37.414062 44.75 C 36.136719 45.285156 34.984375 45.964844 34.269531 47.222656 C 34.191406 47.363281 34.039062 47.53125 33.898438 47.554688 C 33.058594 47.691406 32.550781 48.375 31.878906 48.777344 C 31.539062 48.980469 31.183594 49.207031 30.949219 49.511719 C 30.140625 50.550781 29.441406 51.664062 29.128906 52.964844 C 29.027344 53.386719 29.074219 53.847656 29.042969 54.429688 M 19.339844 48.003906 C 19.238281 49.300781 19.171875 50.484375 19.402344 51.664062 C 19.453125 51.9375 19.578125 52.207031 19.707031 52.457031 C 20.019531 53.0625 20.304688 53.238281 20.945312 53.035156 C 22.242188 52.628906 23.519531 52.164062 24.792969 51.6875 C 25 51.613281 25.230469 51.386719 25.300781 51.179688 C 25.59375 50.296875 25.832031 49.390625 26.121094 48.378906 C 23.835938 48.726562 21.585938 49.007812 19.339844 48.003906 M 63.628906 39.058594 C 63.71875 39.035156 63.789062 39.035156 63.824219 39.003906 C 65.320312 37.539062 66.226562 35.773438 66.476562 33.6875 C 66.507812 33.414062 66.484375 33.089844 66.363281 32.851562 C 65.683594 31.492188 64.734375 30.40625 63.234375 29.875 C 63.183594 30 63.136719 30.070312 63.128906 30.148438 C 62.867188 32.421875 62.828125 34.703125 63.023438 36.980469 C 63.082031 37.699219 63.171875 38.449219 63.628906 39.058594 M 42.960938 30.121094 C 43.03125 32.246094 43.09375 34.308594 43.164062 36.480469 C 43.816406 36.246094 44.363281 36.027344 44.921875 35.851562 C 45.371094 35.710938 45.632812 35.429688 45.796875 34.996094 C 46.175781 33.984375 46.585938 32.980469 46.964844 31.964844 C 47.160156 31.445312 47.3125 30.90625 47.5 30.332031 C 45.945312 29.980469 44.488281 29.984375 42.960938 30.121094 M 54.734375 32.035156 C 54.238281 32.367188 53.90625 32.625 53.542969 32.828125 C 53.035156 33.109375 52.757812 33.511719 52.65625 34.089844 C 52.515625 34.867188 52.078125 35.503906 51.566406 36.089844 C 51.335938 36.355469 51.105469 36.621094 50.777344 37.007812 C 52.460938 37.316406 53.972656 37.613281 55.390625 38.710938 C 55.292969 37.773438 55.179688 37.070312 55.164062 36.367188 C 55.152344 35.652344 55.246094 34.933594 55.289062 34.21875 C 55.25 34.214844 55.214844 34.210938 55.175781 34.207031 C 55.136719 34.355469 55.097656 34.503906 55.050781 34.683594 C 54.949219 33.84375 54.851562 33.039062 54.734375 32.035156 M 16.089844 31.625 C 15.0625 31.789062 14.148438 31.921875 13.242188 32.085938 C 13.105469 32.113281 12.933594 32.269531 12.878906 32.40625 C 12.488281 33.371094 12.125 34.347656 11.765625 35.289062 C 12.804688 36.175781 14.339844 36.910156 15.183594 36.921875 C 15.476562 35.210938 15.773438 33.488281 16.089844 31.625 M 17.496094 21.714844 C 16.738281 22.789062 13.742188 29.996094 13.636719 30.929688 C 14.511719 30.796875 15.367188 30.664062 16.230469 30.535156 C 16.652344 27.613281 17.0625 24.757812 17.496094 21.714844 M 40.292969 31.128906 C 40.167969 31.210938 40.128906 31.21875 40.121094 31.242188 C 39.667969 32.433594 39.207031 33.625 38.78125 34.828125 C 38.714844 35.007812 38.753906 35.304688 38.867188 35.457031 C 39.328125 36.09375 39.839844 36.699219 40.34375 37.328125 C 40.820312 37.191406 41.246094 37.070312 41.742188 36.925781 C 41.339844 34.949219 40.980469 33.035156 40.292969 31.128906 M 42.777344 28.269531 C 44.578125 28.136719 46.371094 28.003906 48.203125 27.867188 C 48.316406 27.382812 48.414062 26.960938 48.523438 26.492188 C 46.359375 26.226562 44.320312 26.300781 42.238281 26.605469 C 42.425781 27.191406 42.589844 27.691406 42.777344 28.269531 M 18.503906 52.574219 C 18.429688 52.140625 18.335938 51.839844 18.328125 51.535156 C 18.292969 50.34375 18.296875 49.148438 18.261719 47.957031 C 18.257812 47.722656 18.234375 47.402344 18.085938 47.269531 C 17.632812 46.863281 17.113281 46.53125 16.613281 46.160156 C 15.515625 48.566406 16.382812 50.800781 18.503906 52.574219 M 16.980469 38.78125 C 16.136719 39.988281 15.847656 42.304688 16.335938 43.335938 C 17.445312 42.042969 18.578125 40.722656 19.738281 39.371094 C 18.816406 39.171875 17.886719 38.972656 16.980469 38.78125 M 18.324219 46.089844 C 18.933594 44.894531 19.511719 43.761719 20.085938 42.628906 C 20.3125 42.179688 20.304688 41.195312 20.066406 40.683594 C 19.121094 41.519531 18.246094 42.414062 17.636719 43.515625 C 16.78125 45.058594 16.5625 44.882812 18.273438 46.078125 C 18.296875 46.09375 18.328125 46.089844 18.324219 46.089844 M 37.441406 50.292969 C 37.476562 50.339844 37.507812 50.386719 37.542969 50.433594 C 38.113281 50.09375 38.671875 49.738281 39.253906 49.417969 C 39.597656 49.226562 39.808594 48.972656 39.9375 48.597656 C 40.503906 46.964844 41.472656 45.546875 42.410156 44.125 C 42.796875 43.535156 42.925781 43.023438 42.578125 42.378906 C 41.785156 42.605469 41.222656 42.96875 41.046875 43.871094 C 40.65625 45.835938 39.765625 47.574219 38.480469 49.101562 C 38.140625 49.503906 37.789062 49.894531 37.441406 50.292969 M 23.117188 36.808594 C 24.546875 35.898438 25.894531 35.039062 27.246094 34.175781 C 27.554688 33.980469 27.449219 33.761719 27.261719 33.511719 C 26.191406 33.527344 25.144531 33.773438 24.113281 34.066406 C 23.957031 34.109375 23.785156 34.304688 23.738281 34.464844 C 23.511719 35.21875 23.332031 35.980469 23.117188 36.808594 M 31.839844 42.859375 C 30.367188 43.972656 29.152344 45.136719 28.449219 46.773438 C 29.285156 46.464844 30.378906 46.78125 30.890625 45.820312 C 31.363281 44.9375 32.3125 44.191406 31.839844 42.859375 M 17.265625 37.730469 C 18.285156 38.042969 19.261719 38.207031 20.328125 38.316406 C 20.210938 37.347656 20.503906 36.457031 20.1875 35.574219 C 18.441406 36.226562 17.773438 36.707031 17.265625 37.730469 M 22.644531 38.597656 C 23.414062 38.902344 23.929688 38.800781 24.5 38.378906 C 25.191406 37.863281 25.976562 37.457031 26.765625 37.089844 C 27.582031 36.710938 27.605469 36.757812 27.527344 35.875 C 27.511719 35.714844 27.480469 35.554688 27.433594 35.273438 C 25.742188 36.273438 24.203125 37.332031 22.644531 38.597656 M 49.402344 30.65625 C 49.3125 31.90625 49.234375 32.9375 49.148438 34.113281 C 49.628906 33.894531 49.96875 33.699219 50.335938 33.582031 C 50.992188 33.371094 51.214844 32.863281 51.410156 32.265625 C 51.542969 31.851562 51.425781 31.578125 51.097656 31.410156 C 50.605469 31.152344 50.085938 30.957031 49.402344 30.65625 M 25.015625 29.664062 C 25.226562 29.683594 25.308594 29.707031 25.390625 29.699219 C 25.753906 29.667969 26.117188 29.632812 26.484375 29.59375 C 27.132812 29.523438 27.246094 29.386719 27.148438 28.714844 C 27.046875 28.011719 26.929688 27.3125 26.78125 26.621094 C 26.722656 26.347656 26.703125 26.011719 26.339844 25.8125 C 25.699219 27.046875 25.304688 28.296875 25.015625 29.664062 M 30.304688 36.40625 C 30.867188 36.484375 31.277344 36.574219 31.691406 36.585938 C 31.84375 36.585938 32.101562 36.433594 32.140625 36.300781 C 32.386719 35.46875 32.585938 34.621094 32.816406 33.710938 C 32.207031 33.65625 31.683594 33.605469 31.128906 33.554688 C 30.851562 34.515625 30.59375 35.40625 30.304688 36.40625 M 21.828125 54.800781 C 23.410156 55.269531 24.980469 55.160156 26.632812 54.925781 C 26.1875 54.234375 25.808594 53.652344 25.417969 53.054688 C 24.234375 53.695312 23.203125 54.574219 21.828125 54.800781 M 30.324219 32.472656 C 30.519531 31.707031 30.679688 31.0625 30.875 30.300781 C 29.953125 30.378906 29.179688 30.449219 28.324219 30.523438 C 28.378906 31.195312 28.429688 31.773438 28.480469 32.382812 C 29.140625 32.414062 29.695312 32.441406 30.324219 32.472656 M 20.304688 31.203125 C 19.21875 31.148438 19.222656 31.160156 19 32.003906 C 18.847656 32.582031 18.652344 33.148438 18.496094 33.722656 C 18.414062 34.019531 18.367188 34.332031 18.28125 34.769531 C 18.9375 34.300781 19.457031 33.960938 19.933594 33.566406 C 20.109375 33.421875 20.269531 33.160156 20.289062 32.941406 C 20.339844 32.382812 20.304688 31.816406 20.304688 31.203125 M 24.28125 32.875 C 25.332031 32.703125 26.347656 32.539062 27.351562 32.375 C 27.390625 31.207031 27.390625 31.207031 27.082031 30.597656 C 26.234375 31.046875 25.378906 31.480469 24.539062 31.945312 C 24.1875 32.140625 24.183594 32.480469 24.28125 32.875 M 31.5 32.113281 C 32.65625 31.699219 33.660156 31.339844 34.699219 30.96875 L 34.699219 29.972656 C 33.738281 30.066406 32.851562 30.152344 31.984375 30.234375 C 31.816406 30.878906 31.679688 31.421875 31.5 32.113281 M 28.046875 54.4375 C 27.902344 53.105469 28.28125 52.011719 28.765625 50.941406 C 28.710938 50.902344 28.652344 50.867188 28.597656 50.828125 C 27.863281 51.320312 27.128906 51.8125 26.328125 52.351562 C 26.730469 53.195312 27.023438 53.980469 28.046875 54.4375 M 37.699219 43.488281 C 38.554688 43.09375 39.371094 42.730469 40.167969 42.335938 C 40.296875 42.273438 40.414062 42.078125 40.429688 41.929688 C 40.464844 41.550781 40.441406 41.164062 40.441406 40.660156 C 39.890625 40.964844 39.441406 41.253906 38.960938 41.472656 C 38.136719 41.851562 37.734375 42.480469 37.699219 43.488281 M 51.964844 30.601562 C 52.171875 30.027344 52.375 29.457031 52.589844 28.859375 L 49.613281 28.859375 L 49.613281 29.648438 C 50.382812 29.960938 51.113281 30.257812 51.964844 30.601562 M 32.867188 27.515625 C 33.382812 27.390625 33.871094 27.296875 34.347656 27.148438 C 34.46875 27.109375 34.621094 26.90625 34.625 26.773438 C 34.648438 25.921875 34.542969 25.09375 34.144531 24.285156 C 33.429688 25.261719 33.121094 26.121094 32.867188 27.515625 M 26.453125 50.550781 C 26.519531 50.605469 26.589844 50.660156 26.65625 50.71875 C 27.800781 49.964844 28.667969 48.9375 29.433594 47.769531 C 28.847656 47.8125 28.304688 47.921875 27.769531 48.074219 C 27.632812 48.113281 27.492188 48.269531 27.425781 48.410156 C 27.089844 49.117188 26.773438 49.835938 26.453125 50.550781 M 54.128906 28.675781 C 53.609375 29.03125 53.3125 29.648438 52.796875 31.402344 C 52.75 31.554688 52.816406 31.742188 52.84375 32.046875 C 53.398438 31.660156 53.84375 31.367188 54.265625 31.046875 C 54.382812 30.957031 54.507812 30.765625 54.5 30.632812 C 54.445312 29.996094 54.480469 29.335938 54.128906 28.675781 M 49.742188 26.554688 C 49.714844 27.019531 49.695312 27.371094 49.675781 27.714844 C 50.726562 27.714844 51.703125 27.714844 52.679688 27.714844 C 52.964844 27.714844 53.167969 27.609375 53.203125 27.207031 C 52.152344 26.722656 51.007812 26.699219 49.742188 26.554688 M 16.371094 36.164062 C 16.46875 36.179688 16.566406 36.191406 16.664062 36.207031 C 17.203125 34.660156 17.675781 33.09375 18.066406 31.375 C 17.675781 31.4375 17.414062 31.480469 17.136719 31.523438 C 16.875 33.121094 16.625 34.640625 16.371094 36.164062 M 11.6875 32.574219 C 11.640625 32.515625 11.59375 32.460938 11.546875 32.402344 C 10.808594 32.65625 9.957031 32.617188 9.375 33.347656 C 9.683594 34.003906 10.242188 34.300781 10.863281 34.695312 C 11.164062 33.925781 11.425781 33.25 11.6875 32.574219 M 31.757812 38.875 C 31.792969 38.390625 31.820312 38.039062 31.851562 37.625 C 31.226562 37.566406 30.675781 37.515625 30.058594 37.460938 C 29.898438 37.984375 29.753906 38.457031 29.574219 39.039062 C 30.351562 38.980469 31.015625 38.929688 31.757812 38.875 M 37.917969 40.925781 C 38.769531 40.402344 39.503906 39.953125 40.222656 39.511719 C 40.164062 39.148438 40.101562 38.851562 39.703125 38.945312 C 38.96875 39.117188 38.257812 39.359375 37.585938 39.753906 C 37.695312 40.140625 37.785156 40.460938 37.917969 40.925781 M 21.378906 34.957031 C 21.332031 35.996094 21.34375 36.988281 21.503906 37.996094 C 21.996094 36.902344 22.320312 35.773438 22.609375 34.449219 C 22.097656 34.660156 21.75 34.804688 21.378906 34.957031 M 43.558594 40.589844 C 44.425781 40.09375 45.234375 39.652344 45.960938 39.019531 C 45.5625 38.859375 45.1875 38.769531 44.804688 38.726562 C 44.691406 38.710938 44.539062 38.792969 44.441406 38.875 C 44.078125 39.171875 43.730469 39.488281 43.332031 39.832031 C 43.394531 40.042969 43.464844 40.277344 43.558594 40.589844 M 35.707031 27.886719 C 35.742188 28.230469 35.765625 28.5 35.789062 28.753906 C 37.308594 28.972656 37.59375 28.789062 37.976562 27.3125 C 37.207031 27.507812 36.480469 27.691406 35.707031 27.886719 M 21.375 32.421875 C 21.433594 32.457031 21.488281 32.492188 21.542969 32.527344 C 22.125 31.945312 23.148438 31.957031 23.566406 30.941406 C 22.753906 30.929688 22.0625 30.882812 21.375 31.117188 Z M 37.609375 34.304688 C 37.6875 34.320312 37.765625 34.332031 37.847656 34.347656 C 38.257812 33.226562 38.667969 32.109375 39.089844 30.953125 C 38.15625 30.980469 38.082031 31.011719 37.964844 31.71875 C 37.824219 32.578125 37.726562 33.441406 37.609375 34.304688 M 28.609375 36.613281 C 28.921875 36.476562 29.148438 36.453125 29.195312 36.347656 C 29.492188 35.65625 29.707031 34.941406 29.789062 34.050781 C 29.386719 34.25 29.078125 34.378906 28.804688 34.558594 C 28.679688 34.636719 28.554688 34.816406 28.550781 34.953125 C 28.539062 35.453125 28.582031 35.953125 28.609375 36.613281 M 36.609375 33.75 C 36.734375 32.957031 36.839844 32.257812 36.953125 31.527344 C 35.957031 31.621094 35.878906 31.664062 35.816406 32.113281 C 35.667969 33.148438 35.757812 33.382812 36.609375 33.75 M 49.042969 36.734375 C 49.808594 36.5625 50.246094 35.929688 50.367188 34.808594 C 48.855469 35.085938 48.820312 35.640625 49.042969 36.734375 M 46.9375 34.972656 C 47.46875 34.804688 47.996094 34.847656 48.074219 34.261719 C 48.179688 33.46875 48.210938 32.667969 48.273438 31.867188 C 48.230469 31.859375 48.1875 31.847656 48.144531 31.839844 C 47.757812 32.84375 47.371094 33.847656 46.9375 34.972656 M 35.753906 37.679688 C 35.816406 37.683594 35.878906 37.691406 35.941406 37.699219 C 36.082031 36.867188 36.242188 36.035156 36.359375 35.199219 C 36.417969 34.78125 36.167969 34.664062 35.800781 34.734375 C 35.605469 35.976562 35.589844 37.222656 35.753906 37.679688 M 20.273438 27.316406 C 20.210938 27.3125 20.152344 27.3125 20.089844 27.308594 C 19.898438 28.222656 19.710938 29.132812 19.519531 30.046875 C 20.003906 30.152344 20.261719 30.058594 20.269531 29.640625 C 20.28125 28.867188 20.273438 28.089844 20.273438 27.316406 M 41.582031 41.5625 C 42.6875 41.136719 42.722656 41.015625 42.191406 39.859375 C 41.511719 40.011719 41.503906 40.011719 41.519531 40.566406 C 41.527344 40.871094 41.558594 41.175781 41.582031 41.5625 M 27.578125 37.863281 C 26.816406 38.203125 26.128906 38.308594 25.648438 38.957031 L 27.644531 38.957031 C 27.621094 38.609375 27.605469 38.320312 27.578125 37.863281 M 34.652344 28.210938 C 33.195312 28.375 32.59375 28.613281 32.355469 29.171875 C 33.074219 29.085938 33.738281 29.023438 34.390625 28.921875 C 34.804688 28.855469 34.703125 28.546875 34.652344 28.210938 M 45.957031 36.9375 C 46.082031 36.972656 46.136719 37.003906 46.1875 37 C 46.527344 36.964844 46.863281 36.933594 47.199219 36.886719 C 47.882812 36.792969 47.933594 36.714844 47.832031 35.929688 C 46.898438 36.050781 46.421875 36.296875 45.957031 36.9375 M 38.1875 36.324219 C 38.003906 36.964844 37.613281 37.371094 37.65625 38.019531 C 38.183594 37.875 38.632812 37.753906 39.210938 37.59375 C 38.851562 37.148438 38.566406 36.792969 38.1875 36.324219 M 41.851562 32.546875 C 41.917969 32.539062 41.984375 32.527344 42.054688 32.519531 C 41.984375 31.777344 41.914062 31.035156 41.835938 30.226562 C 41.558594 30.304688 41.390625 30.355469 41.195312 30.414062 C 41.425781 31.167969 41.640625 31.855469 41.851562 32.546875 M 33.835938 34.824219 C 33.769531 34.820312 33.703125 34.816406 33.632812 34.8125 C 33.492188 35.324219 33.320312 35.835938 33.210938 36.359375 C 33.121094 36.800781 33.386719 36.8125 33.746094 36.710938 C 33.777344 36.066406 33.808594 35.445312 33.835938 34.824219 M 36.066406 41.976562 C 37.066406 41.492188 37.089844 41.402344 36.519531 40.3125 C 36.34375 40.949219 36.207031 41.460938 36.066406 41.976562 M 35.855469 30.542969 C 37.019531 30.414062 37.019531 30.414062 37.175781 29.761719 C 36.714844 29.816406 36.285156 29.863281 35.816406 29.917969 C 35.832031 30.175781 35.84375 30.355469 35.855469 30.542969 M 40.203125 28.136719 C 40.429688 27.609375 40.578125 27.261719 40.785156 26.78125 C 40.285156 26.882812 39.945312 26.949219 39.511719 27.035156 C 39.753906 27.417969 39.929688 27.699219 40.203125 28.136719 M 32.851562 38.628906 C 33.375 38.765625 33.539062 38.539062 33.5 38.171875 C 33.484375 38.050781 33.238281 37.832031 33.148438 37.855469 C 32.730469 37.957031 32.859375 38.300781 32.851562 38.628906 M 32.832031 40.980469 C 33.207031 40.519531 33.238281 40.1875 33.136719 39.746094 C 32.546875 40.046875 32.859375 40.449219 32.832031 40.980469 M 44.429688 41.53125 C 44.382812 41.492188 44.332031 41.457031 44.285156 41.417969 C 44.027344 41.558594 43.601562 41.574219 43.832031 42.261719 C 44.085938 41.953125 44.257812 41.742188 44.429688 41.53125 M 41.113281 38.675781 C 41.5 38.925781 41.5 38.925781 41.875 38.496094 C 41.570312 38.566406 41.34375 38.621094 41.113281 38.675781 M 22.230469 33.332031 C 22.265625 33.386719 22.300781 33.441406 22.332031 33.496094 C 22.546875 33.347656 22.929688 33.449219 23 32.882812 C 22.679688 33.070312 22.453125 33.199219 22.230469 33.332031 M 34.535156 32.710938 C 34.589844 32.699219 34.644531 32.691406 34.695312 32.679688 C 34.6875 32.519531 34.679688 32.359375 34.667969 32.199219 C 34.574219 32.214844 34.480469 32.234375 34.382812 32.25 C 34.433594 32.402344 34.484375 32.554688 34.535156 32.710938 M 44.34375 37.414062 C 44.324219 37.351562 44.300781 37.289062 44.28125 37.226562 C 44.148438 37.292969 44.011719 37.355469 43.878906 37.421875 C 43.898438 37.472656 43.921875 37.519531 43.941406 37.570312 C 44.074219 37.519531 44.210938 37.46875 44.34375 37.414062 M 47.769531 29.234375 C 47.773438 29.15625 47.773438 29.078125 47.773438 29 C 47.558594 29.019531 47.34375 29.042969 47.125 29.0625 C 47.128906 29.105469 47.128906 29.152344 47.128906 29.195312 C 47.34375 29.207031 47.558594 29.222656 47.769531 29.234375 " fill-opacity="1" fill-rule="nonzero"/></g></svg>