<svg xmlns="http://www.w3.org/2000/svg" xmlns:xlink="http://www.w3.org/1999/xlink" width="100" zoomAndPan="magnify" viewBox="0 0 75 74.999997" height="100" preserveAspectRatio="xMidYMid meet" version="1.0"><defs><clipPath id="f020da7359"><path d="M 8.28125 13.320312 L 66 13.320312 L 66 61.320312 L 8.28125 61.320312 Z M 8.28125 13.320312 " clip-rule="nonzero"/></clipPath></defs><g clip-path="url(#f020da7359)"><path fill="#000000" d="M 63.882812 25.128906 C 61.90625 23.304688 59.054688 22.910156 56.457031 23.035156 C 54.71875 23.09375 53.066406 23.570312 51.472656 24.207031 C 49.9375 19.03125 46 15.027344 39.296875 13.839844 C 36.289062 13.328125 33.230469 13.65625 30.324219 14.523438 C 29.585938 14.195312 28.714844 14.027344 27.601562 14.027344 C 26.339844 13.988281 25.042969 14.101562 23.847656 14.539062 C 21.984375 15.269531 20.347656 16.496094 18.90625 17.855469 C 16.304688 20.410156 13.96875 24.140625 12.492188 28.203125 C 12.191406 28.503906 11.90625 28.824219 11.640625 29.160156 C 10.722656 30.320312 10.214844 31.726562 9.773438 33.121094 C 8.804688 36.085938 8.382812 39.210938 8.363281 42.328125 C 8.292969 44.738281 8.726562 47.121094 9.527344 49.394531 C 10.367188 52.042969 12.316406 54.660156 15.3125 54.898438 C 18.246094 55.054688 21.046875 53.972656 23.703125 52.84375 C 25 52.351562 26.265625 51.789062 27.515625 51.191406 C 27.382812 51.457031 27.257812 51.726562 27.125 51.996094 C 26.882812 52.363281 27.246094 52.875 27.679688 52.640625 C 27.742188 52.558594 27.800781 52.476562 27.867188 52.394531 C 27.867188 52.402344 27.859375 52.414062 27.855469 52.417969 L 27.867188 52.390625 L 27.867188 52.378906 C 28.421875 51.660156 28.96875 50.933594 29.507812 50.199219 C 30.007812 49.941406 30.503906 49.679688 31 49.414062 C 32.117188 52.746094 34.578125 55.855469 38.253906 56.175781 C 38.75 56.210938 39.246094 56.195312 39.738281 56.136719 C 39.300781 56.746094 38.863281 57.359375 38.441406 57.980469 C 37.875 58.882812 36.980469 59.984375 36.832031 60.699219 C 36.835938 60.824219 36.882812 60.929688 36.972656 61.015625 C 37.039062 61.074219 37.117188 61.117188 37.203125 61.140625 C 37.589844 61.328125 38.03125 61.199219 38.382812 60.976562 C 39.417969 60.1875 40.402344 59.332031 41.386719 58.484375 C 43.992188 56.179688 46.640625 53.925781 49.335938 51.71875 C 53.367188 48.515625 57.238281 45.074219 60.394531 40.996094 C 61.890625 39.101562 63.191406 37.082031 64.289062 34.933594 C 66.011719 31.960938 66.78125 27.640625 63.882812 25.128906 Z M 48.878906 20.644531 C 49.644531 21.871094 50.230469 23.175781 50.632812 24.5625 C 50.046875 24.816406 49.46875 25.085938 48.894531 25.359375 C 47.082031 26.277344 45.378906 27.367188 43.792969 28.636719 C 44.03125 28.136719 44.265625 27.632812 44.492188 27.128906 C 45.382812 25.242188 46.234375 23.324219 46.632812 21.265625 C 46.855469 20.316406 47.070312 19.304688 46.863281 18.34375 C 47.632812 19.027344 48.304688 19.792969 48.878906 20.644531 Z M 50.199219 36.855469 C 49.945312 36.683594 49.679688 36.535156 49.398438 36.410156 C 47.03125 35.417969 44.488281 35.53125 42.53125 35.144531 C 41.878906 35.019531 41.226562 34.882812 40.613281 34.714844 C 41.414062 33.359375 42.160156 31.972656 42.859375 30.5625 C 43.4375 30.0625 44.054688 29.5625 44.601562 29.132812 C 45.902344 28.105469 48.429688 26.453125 50.386719 25.65625 C 50.546875 25.582031 50.707031 25.507812 50.863281 25.4375 C 51.714844 29.09375 51.3125 33 50.199219 36.855469 Z M 31.535156 48.011719 C 31.496094 47.867188 31.46875 47.71875 31.4375 47.570312 C 32.164062 46.570312 32.894531 45.578125 33.644531 44.601562 C 35.667969 41.953125 37.703125 39.304688 39.515625 36.511719 C 39.851562 36.988281 40.273438 37.375 40.78125 37.671875 C 42.664062 38.976562 44.996094 39.585938 47.289062 39.507812 C 45.59375 40.554688 43.808594 41.453125 42.066406 42.410156 C 39.050781 44.011719 36.089844 45.707031 33.070312 47.308594 C 32.5625 47.585938 32.058594 47.859375 31.5625 48.128906 C 31.554688 48.082031 31.542969 48.042969 31.535156 48.011719 Z M 13.414062 28.339844 C 13.785156 27.960938 14.15625 27.703125 14.675781 27.574219 C 13.601562 29.722656 12.90625 32.039062 12.925781 34.449219 C 12.917969 35.390625 13.089844 36.300781 13.4375 37.171875 C 13.050781 38.40625 12.671875 39.640625 12.296875 40.875 C 11.289062 36.929688 11.882812 32.464844 13.414062 28.339844 Z M 17.769531 22.859375 C 17.90625 22.488281 18.042969 22.109375 18.179688 21.730469 C 18.089844 22.050781 18.003906 22.371094 17.914062 22.6875 C 17.867188 22.746094 17.816406 22.800781 17.769531 22.859375 Z M 17.207031 25.113281 C 17.007812 25.777344 16.808594 26.4375 16.605469 27.097656 L 16.5625 27.097656 C 16.675781 26.558594 16.808594 26.023438 16.953125 25.488281 C 17.03125 25.359375 17.117188 25.238281 17.207031 25.113281 Z M 32.183594 17.320312 C 33.0625 18.488281 33.582031 19.390625 33.878906 20.640625 C 34.128906 21.894531 34.242188 23.472656 34.289062 25.054688 C 34.28125 26.46875 33.878906 27.921875 33.335938 29.289062 C 32.714844 28.4375 31.75 27.832031 30.3125 27.628906 C 28.164062 27.414062 26.027344 28.066406 23.960938 28.570312 C 21.539062 29.105469 17.640625 30.621094 16.59375 29.746094 C 16.550781 29.6875 16.515625 29.628906 16.480469 29.566406 C 16.683594 28.902344 16.886719 28.238281 17.089844 27.570312 L 17.160156 27.34375 C 17.515625 27.328125 17.859375 27.320312 18.179688 27.308594 C 17.859375 27.265625 17.535156 27.21875 17.210938 27.175781 C 17.578125 25.984375 17.953125 24.796875 18.320312 23.605469 C 20.214844 21.191406 22.5 19.222656 25.175781 17.699219 C 26.785156 16.789062 28.472656 16.050781 30.234375 15.484375 C 30.9375 15.851562 31.546875 16.433594 32.179688 17.320312 Z M 36.132812 31.417969 C 36.28125 32.785156 36.960938 33.980469 38.445312 34.722656 C 38.644531 34.828125 38.855469 34.925781 39.074219 35.019531 C 37.382812 38.105469 34.851562 40.820312 31.9375 42.996094 C 32.375 41.796875 32.789062 40.59375 33.152344 39.371094 C 33.523438 38.089844 33.96875 36.441406 34.183594 34.785156 C 34.773438 33.628906 35.417969 32.503906 36.128906 31.417969 Z M 44.105469 18.347656 C 44.640625 18.058594 44.710938 17.996094 45.308594 17.867188 C 45.390625 17.867188 45.527344 17.859375 45.554688 17.855469 C 45.597656 17.863281 45.644531 17.878906 45.6875 17.894531 C 45.964844 18.023438 46.132812 19.171875 46.023438 19.738281 C 45.558594 22.886719 44.410156 25.246094 43.113281 28.039062 C 42.816406 28.683594 42.507812 29.324219 42.1875 29.960938 C 42.375 29.324219 42.5 28.675781 42.5625 28.011719 C 42.546875 26 42.03125 24.796875 39.847656 25.921875 C 38.824219 26.453125 38.085938 27.34375 37.367188 28.222656 C 38.421875 24.699219 41.109375 20.644531 43.628906 18.667969 C 43.433594 18.828125 43.972656 18.398438 44.105469 18.347656 Z M 37.441406 29.5625 C 37.964844 28.894531 39.152344 27.367188 39.925781 26.910156 C 40.339844 26.621094 40.792969 26.441406 41.292969 26.363281 C 41.3125 26.367188 41.328125 26.367188 41.34375 26.363281 C 42.058594 27.421875 41.542969 29.472656 40.769531 31.402344 C 40.386719 31.871094 40.066406 32.378906 39.820312 32.933594 C 39.628906 33.363281 39.410156 33.792969 39.253906 34.242188 C 38.066406 33.71875 37.1875 32.941406 36.945312 31.664062 C 36.890625 31.183594 36.890625 30.703125 36.945312 30.222656 C 37.109375 30.003906 37.269531 29.777344 37.433594 29.5625 Z M 16.234375 30.347656 C 17.597656 31.332031 20.820312 30.09375 22.359375 29.738281 C 25.132812 29.089844 28.105469 28.109375 30.457031 28.496094 C 31.691406 28.742188 32.472656 29.371094 32.929688 30.238281 C 32.847656 30.425781 32.761719 30.609375 32.675781 30.789062 C 32.15625 31.976562 31.375 33.433594 30.738281 34.128906 C 27.484375 37.976562 23.578125 40.445312 18.574219 39.96875 C 16.464844 40 14.851562 38.519531 14.1875 36.636719 C 14.90625 34.550781 15.585938 32.449219 16.234375 30.347656 Z M 15.792969 27.417969 C 15.734375 27.746094 15.679688 28.074219 15.632812 28.40625 C 15.566406 28.988281 15.625 29.433594 15.773438 29.777344 C 15.164062 31.714844 14.542969 33.667969 13.925781 35.617188 C 13.894531 35.429688 13.875 35.242188 13.863281 35.054688 C 13.65625 32.265625 14.503906 29.832031 15.78125 27.414062 Z M 13.757812 37.859375 C 14.5625 39.371094 15.914062 40.554688 17.707031 40.773438 C 19.890625 41.027344 22.171875 40.933594 24.234375 40.140625 C 27.070312 39.066406 29.429688 37.027344 31.375 34.757812 C 32.222656 33.78125 32.808594 32.632812 33.347656 31.464844 C 33.519531 32.320312 33.515625 33.296875 33.402344 34.316406 C 32.078125 36.847656 31.191406 39.527344 30.742188 42.34375 C 30.648438 42.890625 30.5625 43.445312 30.492188 44 C 29.324219 44.773438 28.109375 45.464844 26.84375 46.074219 C 24.335938 47.25 20.808594 48.238281 18.203125 47.703125 C 15.757812 47.066406 13.980469 45.082031 12.824219 42.519531 C 12.675781 42.148438 12.546875 41.773438 12.4375 41.390625 C 12.894531 40.21875 13.335938 39.042969 13.757812 37.859375 Z M 30.421875 46.789062 C 30.441406 46.976562 30.464844 47.164062 30.496094 47.347656 C 30.496094 47.363281 30.496094 47.378906 30.503906 47.394531 C 30.21875 47.773438 29.9375 48.15625 29.660156 48.542969 C 29.914062 47.960938 30.171875 47.375 30.421875 46.789062 Z M 31.332031 44.574219 C 31.347656 44.542969 31.359375 44.507812 31.375 44.472656 C 32.519531 43.683594 33.609375 42.820312 34.636719 41.882812 C 33.523438 43.363281 32.402344 44.84375 31.289062 46.332031 C 31.261719 45.746094 31.273438 45.160156 31.328125 44.574219 Z M 48.101562 38.597656 C 47.632812 38.664062 45.574219 38.589844 45.054688 38.460938 C 43.640625 38.207031 42.855469 37.859375 41.65625 37.160156 C 40.851562 36.617188 40.488281 36.476562 40.140625 35.792969 C 40.121094 35.738281 40.097656 35.679688 40.078125 35.613281 C 40.117188 35.550781 40.15625 35.484375 40.191406 35.421875 C 42.007812 35.96875 44.089844 36.191406 45.4375 36.359375 C 47.007812 36.566406 48.550781 36.722656 49.898438 37.710938 L 49.929688 37.738281 C 49.808594 38.117188 49.679688 38.5 49.546875 38.878906 C 49.566406 38.761719 49.539062 38.65625 49.464844 38.5625 C 49.113281 38.167969 48.53125 38.589844 48.097656 38.597656 Z M 50.628906 38.4375 C 51.808594 39.976562 52.066406 42.613281 51.378906 44.703125 C 50.261719 48.828125 46.917969 51.832031 43.132812 54.050781 C 42.75 54.273438 42.355469 54.472656 41.945312 54.648438 C 42.015625 54.550781 42.089844 54.449219 42.15625 54.351562 C 45.726562 49.5 48.734375 44.152344 50.625 38.4375 Z M 36.859375 14.496094 C 39.855469 14.558594 42.609375 15.398438 45.121094 17.015625 C 44.910156 17.046875 44.703125 17.105469 44.507812 17.195312 C 43.113281 17.742188 42.042969 18.859375 41.082031 19.960938 C 38.925781 22.535156 37.28125 25.535156 36.410156 28.773438 C 36.316406 29.089844 36.246094 29.414062 36.191406 29.742188 C 35.507812 30.683594 34.878906 31.660156 34.296875 32.671875 C 34.292969 31.859375 34.152344 31.074219 33.878906 30.3125 C 34.601562 28.660156 35.144531 26.921875 35.1875 25.113281 C 35.085938 22.59375 35.0625 19.894531 33.578125 17.734375 C 32.835938 16.632812 32.171875 15.769531 31.375 15.152344 C 33.171875 14.675781 35 14.457031 36.859375 14.496094 Z M 26.074219 14.964844 C 27.183594 14.890625 28.070312 14.890625 28.832031 15.019531 C 27.878906 15.367188 26.949219 15.765625 26.039062 16.214844 C 23.335938 17.511719 20.949219 19.359375 18.921875 21.539062 C 19.007812 21.230469 19.097656 20.925781 19.179688 20.617188 C 19.394531 19.84375 19.59375 19.066406 19.753906 18.28125 C 21.636719 16.503906 23.828125 15.171875 26.074219 14.964844 Z M 16.113281 22.824219 C 16.699219 21.863281 17.355469 20.945312 18.082031 20.078125 C 18.003906 20.273438 17.925781 20.472656 17.851562 20.667969 C 17.363281 21.941406 16.890625 23.230469 16.5 24.542969 C 15.9375 25.34375 15.421875 26.171875 14.957031 27.03125 C 14.613281 27.03125 14.28125 27.089844 13.953125 27.199219 C 13.914062 27.214844 13.875 27.238281 13.839844 27.253906 C 14.476562 25.71875 15.234375 24.242188 16.113281 22.824219 Z M 22.390625 52.421875 C 20.808594 53.085938 19.171875 53.675781 17.464844 53.890625 C 13.34375 54.710938 11.066406 52.046875 9.996094 47.8125 C 8.960938 44.734375 9.210938 40.710938 9.617188 37.722656 C 10.023438 35.300781 10.667969 32.707031 11.71875 30.6875 C 10.65625 34.707031 10.519531 38.863281 11.847656 42.394531 C 11.695312 42.90625 11.539062 43.417969 11.390625 43.9375 C 11.578125 43.5 11.753906 43.066406 11.933594 42.628906 C 12.253906 43.445312 12.660156 44.21875 13.144531 44.949219 C 14.261719 46.554688 15.859375 47.960938 17.777344 48.507812 C 21.589844 49.285156 25.46875 47.8125 28.800781 46.0625 C 29.269531 45.804688 29.730469 45.535156 30.179688 45.253906 C 29.535156 46.824219 28.851562 48.355469 28.121094 49.90625 C 26.253906 50.847656 24.34375 51.6875 22.390625 52.425781 Z M 31.816406 48.984375 C 33.09375 48.300781 34.367188 47.597656 35.648438 46.914062 C 38.347656 45.414062 41.058594 43.933594 43.777344 42.46875 C 45.703125 41.398438 47.71875 40.417969 49.46875 39.078125 C 49.476562 39.0625 49.488281 39.050781 49.492188 39.035156 C 48.007812 43.183594 45.828125 47.191406 43.648438 50.667969 C 42.648438 52.191406 41.566406 53.652344 40.488281 55.121094 C 36.472656 56.042969 33.210938 53.382812 31.808594 48.992188 Z M 61.121094 38.5 C 57.824219 43.363281 52.960938 47.730469 48.105469 51.582031 C 45.882812 53.410156 43.691406 55.273438 41.53125 57.171875 C 40.609375 57.988281 39.679688 58.796875 38.714844 59.566406 C 38.46875 59.785156 38.28125 59.953125 38.117188 60.082031 C 38.871094 58.835938 39.996094 57.300781 41.039062 55.875 C 44.058594 55.042969 46.863281 52.714844 48.945312 50.648438 C 51.339844 48.117188 53.179688 44.328125 52.492188 40.808594 C 52.351562 39.515625 51.832031 38.402344 50.925781 37.464844 C 51.085938 36.949219 51.238281 36.425781 51.378906 35.902344 C 52.363281 32.136719 52.5 28.394531 51.703125 25.078125 C 53.527344 24.332031 55.390625 23.863281 57.460938 23.914062 C 60.382812 23.9375 63.121094 24.800781 64.433594 27.316406 C 66.050781 30.6875 63.472656 34.949219 61.121094 38.507812 Z M 61.121094 38.5 " fill-opacity="1" fill-rule="nonzero"/></g></svg>